<mxfile host="65bd71144e">
    <diagram id="bx4TUaGft10wqRVIDMTj" name="第 1 页">
        <mxGraphModel dx="1668" dy="1992" grid="1" gridSize="10" guides="1" tooltips="1" connect="1" arrows="1" fold="1" page="1" pageScale="1" pageWidth="827" pageHeight="1169" math="0" shadow="0">
            <root>
                <mxCell id="0"/>
                <mxCell id="1" parent="0"/>
                <mxCell id="2" value="" style="rounded=0;whiteSpace=wrap;html=1;" parent="1" vertex="1">
                    <mxGeometry x="20" y="50" width="210" height="380" as="geometry"/>
                </mxCell>
                <mxCell id="3" value="" style="whiteSpace=wrap;html=1;aspect=fixed;" parent="1" vertex="1">
                    <mxGeometry x="380" y="40" width="410" height="410" as="geometry"/>
                </mxCell>
                <mxCell id="5" value="ECStack调用栈" style="text;html=1;align=center;verticalAlign=middle;whiteSpace=wrap;rounded=0;" parent="1" vertex="1">
                    <mxGeometry x="20" y="20" width="60" height="30" as="geometry"/>
                </mxCell>
                <mxCell id="7" value="{&lt;div&gt;name:undefined&lt;/div&gt;&lt;div&gt;foo:0x100&lt;/div&gt;&lt;div&gt;&lt;br&gt;&lt;/div&gt;&lt;div&gt;}&lt;/div&gt;" style="rounded=0;whiteSpace=wrap;html=1;" parent="1" vertex="1">
                    <mxGeometry x="400" y="100" width="120" height="110" as="geometry"/>
                </mxCell>
                <mxCell id="9" value="堆内存" style="text;html=1;align=center;verticalAlign=middle;resizable=0;points=[];autosize=1;strokeColor=none;fillColor=none;" parent="1" vertex="1">
                    <mxGeometry x="390" y="-2" width="60" height="30" as="geometry"/>
                </mxCell>
                <mxCell id="15" value="GO" style="text;html=1;align=center;verticalAlign=middle;whiteSpace=wrap;rounded=0;" vertex="1" parent="1">
                    <mxGeometry x="400" y="70" width="60" height="30" as="geometry"/>
                </mxCell>
                <mxCell id="17" value="" style="rounded=0;whiteSpace=wrap;html=1;" vertex="1" parent="1">
                    <mxGeometry x="30" y="310" width="190" height="120" as="geometry"/>
                </mxCell>
                <mxCell id="18" value="GEC" style="text;html=1;align=center;verticalAlign=middle;whiteSpace=wrap;rounded=0;" vertex="1" parent="1">
                    <mxGeometry x="20" y="280" width="60" height="30" as="geometry"/>
                </mxCell>
                <mxCell id="21" value="VO：GO" style="rounded=0;whiteSpace=wrap;html=1;" vertex="1" parent="1">
                    <mxGeometry x="50" y="320" width="120" height="40" as="geometry"/>
                </mxCell>
                <mxCell id="22" value="执行代码" style="rounded=0;whiteSpace=wrap;html=1;" vertex="1" parent="1">
                    <mxGeometry x="50" y="370" width="120" height="40" as="geometry"/>
                </mxCell>
                <mxCell id="23" value="VO： variable object 变量对象" style="text;html=1;align=center;verticalAlign=middle;resizable=0;points=[];autosize=1;strokeColor=none;fillColor=none;" vertex="1" parent="1">
                    <mxGeometry x="280" y="-222" width="180" height="30" as="geometry"/>
                </mxCell>
                <mxCell id="24" value="" style="whiteSpace=wrap;html=1;" vertex="1" parent="1">
                    <mxGeometry x="400" y="300" width="120" height="60" as="geometry"/>
                </mxCell>
                <mxCell id="25" value="0x100&amp;nbsp; foo" style="text;html=1;align=center;verticalAlign=middle;resizable=0;points=[];autosize=1;strokeColor=none;fillColor=none;" vertex="1" parent="1">
                    <mxGeometry x="385" y="270" width="80" height="30" as="geometry"/>
                </mxCell>
                <mxCell id="26" value="函数体" style="whiteSpace=wrap;html=1;" vertex="1" parent="1">
                    <mxGeometry x="400" y="330" width="120" height="60" as="geometry"/>
                </mxCell>
                <mxCell id="27" value="【scope】:parent scope" style="text;html=1;align=center;verticalAlign=middle;resizable=0;points=[];autosize=1;strokeColor=none;fillColor=none;" vertex="1" parent="1">
                    <mxGeometry x="380" y="300" width="150" height="30" as="geometry"/>
                </mxCell>
                <mxCell id="29" value="" style="endArrow=classic;html=1;" edge="1" parent="1" target="27">
                    <mxGeometry width="50" height="50" relative="1" as="geometry">
                        <mxPoint x="490" y="150" as="sourcePoint"/>
                        <mxPoint x="540" y="100" as="targetPoint"/>
                    </mxGeometry>
                </mxCell>
                <mxCell id="30" value="" style="whiteSpace=wrap;html=1;" vertex="1" parent="1">
                    <mxGeometry x="30" y="110" width="190" height="130" as="geometry"/>
                </mxCell>
                <mxCell id="31" value="FEC&amp;nbsp; foo" style="text;html=1;align=center;verticalAlign=middle;resizable=0;points=[];autosize=1;strokeColor=none;fillColor=none;" vertex="1" parent="1">
                    <mxGeometry x="20" y="80" width="70" height="30" as="geometry"/>
                </mxCell>
                <mxCell id="37" style="edgeStyle=none;html=1;exitX=1;exitY=0.5;exitDx=0;exitDy=0;" edge="1" parent="1" source="32" target="35">
                    <mxGeometry relative="1" as="geometry"/>
                </mxCell>
                <mxCell id="32" value="VO：AO&lt;div&gt;scope chain:VO + GO&lt;/div&gt;" style="whiteSpace=wrap;html=1;" vertex="1" parent="1">
                    <mxGeometry x="50" y="130" width="140" height="40" as="geometry"/>
                </mxCell>
                <mxCell id="33" value="执行代码" style="whiteSpace=wrap;html=1;" vertex="1" parent="1">
                    <mxGeometry x="50" y="180" width="140" height="40" as="geometry"/>
                </mxCell>
                <mxCell id="34" value="{&lt;div&gt;num:123&lt;/div&gt;&lt;div&gt;m:100&lt;/div&gt;&lt;div&gt;n:200&lt;/div&gt;&lt;div&gt;&lt;br&gt;&lt;/div&gt;&lt;div&gt;&lt;br&gt;&lt;/div&gt;&lt;div&gt;}&lt;/div&gt;" style="whiteSpace=wrap;html=1;" vertex="1" parent="1">
                    <mxGeometry x="560" y="100" width="120" height="100" as="geometry"/>
                </mxCell>
                <mxCell id="35" value="AO foo" style="text;html=1;align=center;verticalAlign=middle;resizable=0;points=[];autosize=1;strokeColor=none;fillColor=none;" vertex="1" parent="1">
                    <mxGeometry x="555" y="70" width="60" height="30" as="geometry"/>
                </mxCell>
                <mxCell id="36" value="在执行上下文创建前，在内存中已经有了AO，GO，这是发生在编译阶段，执行上下文的创建发生在执行时" style="text;html=1;align=center;verticalAlign=middle;resizable=0;points=[];autosize=1;strokeColor=none;fillColor=none;" vertex="1" parent="1">
                    <mxGeometry x="20" y="-40" width="590" height="30" as="geometry"/>
                </mxCell>
                <mxCell id="162" value="" style="rounded=0;whiteSpace=wrap;html=1;" vertex="1" parent="1">
                    <mxGeometry x="20" y="590" width="210" height="380" as="geometry"/>
                </mxCell>
                <mxCell id="163" value="" style="whiteSpace=wrap;html=1;aspect=fixed;" vertex="1" parent="1">
                    <mxGeometry x="380" y="580" width="410" height="410" as="geometry"/>
                </mxCell>
                <mxCell id="164" value="ECStack调用栈" style="text;html=1;align=center;verticalAlign=middle;whiteSpace=wrap;rounded=0;" vertex="1" parent="1">
                    <mxGeometry x="20" y="560" width="60" height="30" as="geometry"/>
                </mxCell>
                <mxCell id="165" value="{&lt;div&gt;name:undefined&lt;/div&gt;&lt;div&gt;foo:0x100&lt;/div&gt;&lt;div&gt;&lt;br&gt;&lt;/div&gt;&lt;div&gt;}&lt;/div&gt;" style="rounded=0;whiteSpace=wrap;html=1;" vertex="1" parent="1">
                    <mxGeometry x="400" y="640" width="120" height="110" as="geometry"/>
                </mxCell>
                <mxCell id="166" value="GO" style="text;html=1;align=center;verticalAlign=middle;whiteSpace=wrap;rounded=0;" vertex="1" parent="1">
                    <mxGeometry x="400" y="610" width="60" height="30" as="geometry"/>
                </mxCell>
                <mxCell id="167" value="" style="rounded=0;whiteSpace=wrap;html=1;" vertex="1" parent="1">
                    <mxGeometry x="30" y="850" width="190" height="120" as="geometry"/>
                </mxCell>
                <mxCell id="168" value="GEC" style="text;html=1;align=center;verticalAlign=middle;whiteSpace=wrap;rounded=0;" vertex="1" parent="1">
                    <mxGeometry x="20" y="820" width="60" height="30" as="geometry"/>
                </mxCell>
                <mxCell id="169" value="VO：GO" style="rounded=0;whiteSpace=wrap;html=1;" vertex="1" parent="1">
                    <mxGeometry x="50" y="860" width="120" height="40" as="geometry"/>
                </mxCell>
                <mxCell id="170" value="执行代码" style="rounded=0;whiteSpace=wrap;html=1;" vertex="1" parent="1">
                    <mxGeometry x="50" y="910" width="120" height="40" as="geometry"/>
                </mxCell>
                <mxCell id="171" value="" style="whiteSpace=wrap;html=1;" vertex="1" parent="1">
                    <mxGeometry x="400" y="840" width="120" height="60" as="geometry"/>
                </mxCell>
                <mxCell id="172" value="0x100&amp;nbsp; foo" style="text;html=1;align=center;verticalAlign=middle;resizable=0;points=[];autosize=1;strokeColor=none;fillColor=none;" vertex="1" parent="1">
                    <mxGeometry x="385" y="810" width="80" height="30" as="geometry"/>
                </mxCell>
                <mxCell id="173" value="函数体" style="whiteSpace=wrap;html=1;" vertex="1" parent="1">
                    <mxGeometry x="400" y="870" width="120" height="60" as="geometry"/>
                </mxCell>
                <mxCell id="174" value="【scope】:parent scope" style="text;html=1;align=center;verticalAlign=middle;resizable=0;points=[];autosize=1;strokeColor=none;fillColor=none;" vertex="1" parent="1">
                    <mxGeometry x="380" y="840" width="150" height="30" as="geometry"/>
                </mxCell>
                <mxCell id="175" value="" style="endArrow=classic;html=1;" edge="1" target="174" parent="1">
                    <mxGeometry width="50" height="50" relative="1" as="geometry">
                        <mxPoint x="490" y="690" as="sourcePoint"/>
                        <mxPoint x="540" y="640" as="targetPoint"/>
                    </mxGeometry>
                </mxCell>
                <mxCell id="178" style="edgeStyle=none;html=1;" edge="1" target="182" parent="1">
                    <mxGeometry relative="1" as="geometry">
                        <mxPoint x="200" y="1050" as="sourcePoint"/>
                        <Array as="points">
                            <mxPoint x="280" y="1050"/>
                        </Array>
                    </mxGeometry>
                </mxCell>
                <mxCell id="181" value="{&lt;div&gt;num:123&lt;/div&gt;&lt;div&gt;m:100&lt;/div&gt;&lt;div&gt;n:200&lt;/div&gt;&lt;div&gt;&lt;br&gt;&lt;/div&gt;&lt;div&gt;&lt;br&gt;&lt;/div&gt;&lt;div&gt;}&lt;/div&gt;" style="whiteSpace=wrap;html=1;" vertex="1" parent="1">
                    <mxGeometry x="610" y="1040" width="120" height="100" as="geometry"/>
                </mxCell>
                <mxCell id="182" value="AO foo" style="text;html=1;align=center;verticalAlign=middle;resizable=0;points=[];autosize=1;strokeColor=none;fillColor=none;" vertex="1" parent="1">
                    <mxGeometry x="630" y="1010" width="60" height="30" as="geometry"/>
                </mxCell>
                <mxCell id="183" value="执行完foo函数，FEC弹出，foo的AO对象没有被引用了，一般情况也会销毁" style="text;html=1;align=center;verticalAlign=middle;resizable=0;points=[];autosize=1;strokeColor=none;fillColor=none;" vertex="1" parent="1">
                    <mxGeometry x="20" y="498" width="420" height="30" as="geometry"/>
                </mxCell>
                <mxCell id="DEv8lxhfkDtFVVVZY2zk-183" value="" style="shape=image;verticalLabelPosition=bottom;labelBackgroundColor=default;verticalAlign=top;aspect=fixed;imageAspect=0;image=data:image/png,iVBORw0KGgoAAAANSUhEUgAAAXQAAAEOCAIAAAAWuHujAAAgAElEQVR4Ae19a1RUR9qua81ZM+ebmW8mc+aW+TKTGgQD6dbjeMMbSJQoBA2gXBJiJIAKBJWDhCFg0GC4CMK0YojS0ETxBh+JH4wsDIwjKxlhkoC4ehZZzYLpP+af88v8Yn7hWXXZe9e+djfQ0BtelsuuXbvqrbeeqnr2W2/V3rUMwZ+ZEFjXVlPysKHkYdE2iye1D7556OG5kofvxx0M8pTUw/2Q9/MLHjaUfJ0fsUsr5dakdKxSw9GWTVq3IW6pIrBsqVbcpPVe1VJByKUwwlMFhJQNJZ/u8ZTWw/2ITzF3lDxsyGvZqJV0z36ju1o5IG4pIADkYq5Wtl48jcf510fCPeo9b5YLeiWNkMuh86s8KgUJlhACQC4ma+z3CzG53M8IpHG8Me4+tmv2v28yLEFd/yIA5OJffOdcOpDLnEMKAv2EAEcuobXRza5Ux8imKGVZIZlDqQ5XUtEp4cYfQqLPbT49lNDkSnXgf3ttAxEpGcJd+lsR5XCl1re9gCzLd7VF25zJDldqs+vVU20vWuUJPV0l9k873I+SrBHr6sYqndMON/53fmAwOlaeM6Ii8dpk5egUTeCYmKq5ey8mQfJNEDmTidaKjC9ImtEH0daIdQ2T5yemHRNTJTW8/nEbbVJZTc7HBbaTwfLSAvDqQEYemZ5Q/4j4v6ZBsfxAXNzt9wuwx7eh5OGfjn729rYDK6Q6UQpTSquIOyAlgRAg4AEBjlyQxVrkTHW4Xs07Ks+UEV4vJ53NbXGEUyiziP/HZWdzGSm5tK8vHMG0wv/DjOPDHyGFqZrBJ4w1CLng8Ogg714kyRj1SCldk4kCB1GSKuoR2Mc9Xd7xoF6U5hqLYUplJPZLaURRjf3tPrKiD3Wck6TekkuQ9WxxoZI45FMtIJc5aZElLoQnF4Si2l91uFLPt4fxqFAq4SM3t0RX3Vob/UYQfdat2BH2Rv9ebJj0cJ4AQi6EUxI+aLOuJRZE+EfRF12pDufm7XwBHsISazgnk3LSEIoILRgkpDB1pFDKu7vnSdm19q170khUROj+K0eGMdfUXzlJEwlypspqMlDdI8Yaw4Nb19sLxqYd7ie5h3DCdc2PHe7pxsHBmP1UVJw1r6uEWExF70t2kFSwXijz8tff6P593fqWXr65i6erPErL5WAWMXDOHf008Q/bSQuutljzU1Ju7+daT6EE9aqA5aKABS4NEZCTC0peX6Mc/GF5I6kOV2xmsqEcat0MhW8QU1FycUanvSFGIYRWncBWTNRePs5DmJHC8OBWyXKISLqLiaOsxjBvzSRmkN52mojJ+eIOFnOI0hMllIrcUZFczh5xTjvGxqKlskjuwgeN7ummHrthefKbgUkuQRGf4qnQ0bZtcm2Nr4BcjPGBu1oIKMgFLX9rINXhSjh2XEh8dNN5V2pz/5pQIQL/WpbvaomsGtmLfTT8v5HwzWIySi68LSPe8i1ASUHBIxuv4VmSLHL9yaSORzXYBpH/65eRS1kdsT4ouXxxh1SLI5ekezWK7Pzl4L3Vvum+sKm1LJedKV83lDws2bHVJ9WAXHyCCxITBJTkgqhb9+It9uQmEyXOlYszvZA5pHSjMIpZOHJ5qb1ETSuUFxTkQo0dSi7sFkcuzKKR05PIL4uAXOiGN8978OTjA8hFjgdceYOAilyYW9cZ+QrOHnbMqVw/CjoVif0mrrjCihdCxT3ozOm7UJbLulbsKHG4HmUUFkvLOnRaNANykbuKvcFRI01gTosouXjx9oCsRkAuMjjgwisE1OTC3LrEWjm++YIrtaYlhBfFlor6V/NvrAQdj7iAV5QWilzo1On8zQpeU2sjYRyfyAXZi1zTDvfjjNd5STMKBya5rHr5s4aSh+fSz4rPBW8qB+TiDUqQRo6AFrlQt+7FW9bt7QlqV+7qj3bhSZAzKoW4eFfsCItvfxkzy0KSS0wPmcgMD0ZFRODlpP0X9vcKS9e+kUtEDF2rdj0+UnXWul6OlsmutHwuKORsCdnbUpPZstNKV4ssL8Bqkcma1hTqapILIrvmnHH1TpUrFyEUu+Y078Ql4WZnQuNCkgsqfHBe9IyIgbGpJve0wzdyQSj2SpGwVU/uG2Zr1aZoV6KkJrkgZIn49Ky4xU4KGL1SAJaLeVo9cDTVJhfm1pXtyuV0XpGxuniILhUlNzljT7S8uNpC1pgXbFqEUMTqksFygRSaRsmeWpnXFslWnWS3OIcuraX15O5rk6qFp8VCLgihFdb3M/YPnP0j20pXl3M7I4Lfocs1NgkCuSgRgWvPCOiQi+eMkCLgEQjadruh5GFdyjuz13TTq/jVxJMvz/bjDbPXBCSYBwEgF/O0lY+aWmLIlpa5YIR9+3O8/M6DjzpC8sWMAJDLomndzW2liVVR1q1kFW/rph23iWNlYL9s+6NXtd0Yczs/5p0tIWTH4PJ9OxMH8Kbewnbh5SuvhECiJY8AkMui6QLUfSs5aLE/5fSMvnFJPSzs63NM4NeF2t+4XDTwQUXmHAEglzmHdMEE7omOuf2+8Lrz2Zzb+8P38HuRfNBr+YHEpM+qqbv3j19XHmpPtJrqvQcfqgpJ/YcAkIv/sAXJgMCSRgDIZUk3P1QeEPAfAkAu/sMWJAMCSxoBIJcl3fxQeUDAfwgAufgPW5AMCCxpBIBclnTzQ+UBAf8hAOTiP2xBMiCwpBEAclnSzQ+VBwT8h0DAkUvd1Z98e+k5X76y7w9wnm/r+vE/a3630Gr4o2ogExCYJwQMyCUsy/bB/dGbbncn+zdamuVnrSov/+jp+LKnf/tlpZ8L8iA+6jf//Meyp+M/+Gf18x5Swm1AABDQQUCPXIJPdLVJtEL5xc/kkvbBM/8eX/b077+o1PwC47odB+217SMdvQ872u07tKoTvLGwpOnz670PcZru+xdqq3fIDmDChxJtTv+wqlVI0/t1S+uNvISdGsIiDv/iu/FlT8d/NORvQtUoHKIAgcWAgA65vF40jAmlrc8WE6k4wcdPtWbGwo+GDisLCNv7+ntdLd2EMihxaJHLmvSOy/Qu/3+7PYb/APAuewt/l4W/rs3R4peMmp9iM+rvC21GKfGAa0DAHAjokEtNndvd6epJmx9iQQh92PEfT8eXfXf5tyrYNhf3YUukd6TFVn2g6nMdy+Vo+acPO3q/vlD+x83YWlm3Ob2N8sjF97jT3HZdunD1Rl5y6krCOGFrD2c33tcRiPV4/rN733s6/r1vbTA5UjULRAACnhDQJpesa61ud6fzWrSn7HN0P+rX344ve/qPn7VpTYhW1djaO7N3rUMI7SjXIxe0JudGec5u6VgRhBKqhjBxtNasNNAypMKGmetWpnaaIz/HM7WRn9dp34ZYQAAQ0EVgpuQSu+fDrkbnBPP1ukYbb9ui1yhLCX6zonRgWHAJT9wcvlt0IoEf/yxDsf3HT8eX/fvGc0oBymsDclEmRQjl3DKwSlj6tfUX9J04CKHfDfxt2dPx739TqiEfogABQMAAAZ5csvrEhSGtQJ9wMLM1p2hYoBXe6evqzSInqdHi1pzpVbmE3Z3uiabLOQp++d3A58uejv/v0QIDPektn8glhpo5jewcepVwy8q4k+VXRzp6h6oORqruChH5l/4Te166fiNEwC8gAAh4hcAMyGXPJ05ssLgGS0+kkNWY9VuKms+5MB/dvP0+I45I2znCO6JLODgyJ/32l8TS+bIoVabbs/8kc6JmWaTmhQ/kEnK0jHhhqtKVU63MRs433N2TH4cnXPp/dNno77/U4yj9nHAHEFjSCPDkIgFh5HMpq8Y8MlqaK3f20izu/iwSvcU+iLlmoE4+VXopq8/V6Xa33jgklYWyyKLvV7/wYm+L1+RiSagintqrDZu5kmhQRi7Y4fJ5+UGZs0aRg3Df+DMdimi4BAQAAUMEfCYXSiL3m7coxaaT1Wu2F4bMsFzVJ5SJ0JlebLyIMyx8n5JL77OqtOoI78jFElM+gL0t3bcy16pliDGWlRsPH6jqI/ti7pclKw0cMR2QiwgFBAABHxDwmVzO9KvYgRVHCIWSy6FSJ7Fu1BvQKDf5kVwsMcWEL7p78l7S5QsOIAt1zVy3/ZGLlAWBXGRwwAUg4CUCPpNL7k28Su3BcrFmDbg73T5ZLnMyLbLEvPcXYrN4ySwEJLqo1HhaDzEgFz1kIB4QMELAZ3KJbGjEnlqlUzaYko6rJ42UlvjJmMy/y1SIzRrAPpcmexKnk+VZvMnFK6eG4bRInA35wizC3pmW8rc4lfjggV/i9wDAoctjAmFAwAsEfCYXxJyyna67R3J3sdWiE9cayWqR5Kll/t2Jpk/KtpEXCIIjc3L66DJTf5Z85fe3Q3+f9VL0ut3Mz+I9s/A+l948Pe9Mmu0neA9Oh8c9OF6ADUkAgaWEgO/kgtArNXWESsi6srQj5ub95hhpBckac2NYkYBcOqtPxyoBrrz8Q4NNdNovBNHlZGFnrVGah6JVwgwf9kqRuCD9l7I0rXeLiJbPd//le7CJTtlgcA0IeIHATMgFIbQmM+f2YKuLbqWbuOkc/OBPmco3kJF1w4nWuuExYYfuWNNAa0qiRD+cdq/98l94q8szHVFcpBA0Io7ZkMvI9fa+qvKTqjenhXLxL13Jgu3/PCYQBgS8Q0CbXLzLO5epmrt+gF9cvLrgn4niK/V892ffxy8u1sGLizwsEAYEvEIgUMgFxTz7Lf4+k8YnF7yqhx8SZVST78t8/qtiPwgHkYDAokcgYMgFITaY//FMR8zCwy58LOonnwWAMgsPB2gACPiOQACRC0KIfeZywb/PBJ+59L0nQQ5AQIFAYJELQgHyZeznO3p/CB/QVfQVuAQEfEIg0MjFJ+UhMSAACAQuAkAugds2oBkgYGoEgFxM3XygPCAQuAgAuQRu24BmgICpEQByMXXzgfKAQOAiYBpyiS+x07/SxMBFc641C88+a/euvjgl+avN3jTXWgSkvPDDtXa7l+AEZAWWgFLzRS6bsmvt9trD4b5AKg4YMmrOZtPM4ZvihYFEh5Pi/9J4VRmYmITs+GZiaQD1S4yMhs6kEgwBHX6Jx9UQ/0povcPDN8njxQQ0wOPAgCKlsOw4iozbgCMphVazJhep1liUBiwMHbQpu1b3bnypXQOo+BLfWI/URa8PCGqY8NdrclkRvitpX/y21co6kvh9seGKL/orkhG7QwmfaIwo+r9d1WBKdkBSz+ALUiUjN9W8xpGLT+2qr7Ahb+LiNLog1ZwOEv0ElF+U0PG1RhpoYH5RUbk2aGqqJSoxhbUhlRcvXFFVVY1JInT4EWf1rgmIcG6QU9wMxApa6f1KaIRvCqctqy2N9B+7xgOAknhtaaLikRkeX4KtKoq/dp8hFRGxNURA0lOvJgEb7x25rE891cA6TW0mB6UlrrCOxTcU7NKtJGsesdvJRpoCWe4Swyq1EGkPfJf2MPWI5SiD14QTKERzKcWOxQ9F7Q7BPdsFQeSX1E67X9J0alVl+RFCzNYoTUTaRYvICQGiLc5FypX6H85O9FTXmsTIkKdaiF1cVIpLGR6+iQiXTUBYjKAL++UBFEXhgKfqq1WVZacXXJPRCJLLNwNBLlYCjcUbWCi0A3PUxghdg3GYMNqOtYcJbckykiYmMSLyhgio9OSrEbQlq7Iqe5vxkx2hLdlV1dlRK/ic8xH2glw4ZsH9SESKYxYcf6k4TlthGToioGJaRQwPtBgW0sgeyDhSbF3S/Fr9W5aFFaqmA53sQrmislLPkKJwvze0LDyNLiIqvtRemr2JI25WAOEdHV4T1BMQltWLRIqNpRqcTLwsi1AntcLa2YVyhXxaNhQxTEQ1pJRSSGxlKUoZIgUpyMzgkoOLdBKDpBq3xF7kW16uUKJ+ePZZbNQIbSRVSYwRA4YIqEGWRCFkiSuw2S/V5r2s+73o4G3ZtZfsDUXxuil4eXMa9kQuCmax25mFomAW3EbaA0xEEKut7rWqUS1LL3R9FplYKlEbQQHH20vjSdenT2wFOKTZVI9rVaGKXMKlmpg0WlqmsJBT9quutey28YURuQh4Mq1wZWVdnMSfzY4nvk9xzPDlMQD5KO99UkLrcLm9QoxLj4OGQ0s3Acnl2XIxaB2DW1RDrQQMUvlDQKNXiHUUhYjVFGPEgHhLzMUFjISTZJYdR2rtl2yFr2iwh+XlvNpLdltBnMY9rgw/BQ3JRcUs9jPZW4IwXYqzIY75tciF9D8ujRTEfZ3eJeMBA83+eC7AyAq2ZWmpaulEyiUbVCJWZGRq+DtovFAg/8s/YzEpKCrF9BEL0HxWc3dJ0IhcsECjKRWdMWnXjs2nShNp/ytVORdJPKmdJrMw/JV1REI8j4sQ5jTBQ4KHC9cVAyuvjppulPAYDi2mjFp/kktRllIyVkjhy+eSGNyiqbQSEEiVtab4s4UErBiHkihErKYYIwbEW5x2YlAmXIyVB4KjcmrtlxqKE2UcYnml0HbJXntkhyxWntOvV/rk4huz6FoudPiRzoFhkgIlpd6vH4nNIGKBY8if5HTgp2wknZAGs5UQFgaJlFcUqQiI2vLx6qGijuHTk7ABueBb+E89eAQpWD7fWYV4/lfd/0gMEUxWpokQpRwxTWk8dQlTVaT/eZbni6NhLFPOI4wIZJEa1o1SlOHQ0q0+yaVSQCnbiFyU5aqaSbPPSPAoQgKhhCfKOjYWQshILE6MEQPiLZX62LDDa6OCcK0ELG5LZpXd3lC6ly25WBKLGy7Za3OiPPljDETO9pYOufjMLL6TC12WFluUDDNZvxTcnIpGZJfKpwcBgo1VMipoty7RXKkhDaYpQcSTiRILJyaMeqioY0QJYkCsoxgjCwiDXFsf3dFlZF8oeYSVRwckM8eIVqV4XUNhnQkOZsMOLYgS8KHKq2uqjpHVHV8YDC18SxsWmss7chF0FH8plSvKJVQi41Nx8HMqa/Yc1fgnvYKWIgoRixNjxIB4iytIDKqEi3dUgS0HPmgg/LI6sbTBbq/KVJ1cqMri1wgtcvGeWS6J7eWBXPh0NCxBTzs37oU6fYU0lV4nE/wOCpTwmMRF6HRu3K4ag0oUQoa0MJ+S2p5qoq4MjdEbjTo6iIVR6730cLh8Jk/v65OLmJ9Ap/dwk5QX0yPJxNC+S5+WOqMai2E4MFYSBwlBWw8dXetMRwdeXY0wyaXTYbjkkm4sUugYCg8gwZD2STG3Kq9gRyiR0Rr/WCDGRxQiVlOMEQPiLbFoLqAlnLutCK57ja7rNnxwYIGZBSGkIhfvmeVccfzLeGuc8Kd+ANKKY3RIs6kDdAwLAvhfrv1oN7Kfra0VRrsMUM2hKy4rat5VdCyZOHyBWx3/seeYYduTzHSwzYJcOBX0MRHx4cCRtMX4aDSBtvKJpZSMtO8aWhPMUMfKqMiFq4YsqDV0xQR6OogJjDlLREUIyEAQB7AgjSMX0mrctFqWkQErh5rVXTNSp/VFBXA1SUYxRgwYIrBoyMUSj80p/o96cIO2ZJ/hY+32c8V4aUv2JFe2jdCcak4RYviRT/qffFpEBYRnny0tJYYG/h83D4Fbrg5/JXv+8EUICuFforkspXgX36rNPizNpwzbnmQzkOaJyMRidQKEa3Q6LskSX3oWu7rt9H+c0gM98SDrVk23OeiSX2k2XoHyjVz4cvnK6urAJ1KFSS6PlotqZJKWEjRhRKMnCg9+7/8UbSTQt8ggBgFDBFRVUEEhRgT0tGhdJmeI2O1sbQghtKdYBjJlFmGICrd8JhcRboyOXm8mjSSk5B47IqJ69EET6N71NGi5jIZtT4qZLbkIbCtWSgp40DP8cG3tYfI+REk8ZUxh5DARxsrr3jWukdy0EVpHUloZ0mtckk5XB6UU2TXJ5RW5yB4hMnKRnlKyNEI5WvUiWbywXIh62PIVhEgcIcSIt4y8TovIoUs6ASMLarNQoLfl2QQKYTYLjQ9NPSW6XarT1wmtIv+VmlCUobE+ot3/cF62b5W2aGKpsh9wLCAvl1zp38VtLDx7jTOy3k/6JV8FIVwabzwU9XVg5VLJikcfu2dMLvTdFqnjhh8uVexGNx66+neJTOUoknDiM7LRQlpQwIT7PZsdTm4pWE+UxYsSIz0GSC5P5CKjEiJS3hZUCO/Ow3XRbgiqkQdYBLWlFhGoRHouCjFzSC7mWIq27Dh8ynauoaokFe9n4f7W7S2uOtdgK8tWLJpbXsn7oK6hobp433outSyIgSaMoAgYv39I/B3CrjmxPWSC6YW8uygTGNxVMwJOLNhfXEbPvR8n1u/onCileuSayJetU3DJjMgFZ8QjQerKXEYWNFbe6K6qUjixQDd8RqPW8VxB4+e2ukJ8vfQxp6lwFYQGlTQRYwi2spU1hiSpHceP3gcZMUlUQhURBIpF42gRNx5Mmp7736hxSTKTbqLjqjiLIAaaPLUU5CJfG1F1ZTpm6ONObAZh5dJDa0sPSaOBTZqN63ykjYVBTvThipF1CyUaGspzSYx00FuAELMbkIv4Sq6s/2GsPPwJdZTPbsQihQApWmATwXPMcBBGi1ASl0zILv3KgJWiWchwaKlSCxFUAamhhXjuV4KFx0TIQmpnp84jERAcqTSNOYk6Dl1ZCnyhaHFmmWaTt/k1OpIhAlItVMUghCzxRQ3ebf/ft1puLmhJm+M41WrRHMtn/j+yexHDJDdhuMI0xmd8qWCg8uTC5SFBRUMqbhvflc9HZKVwGQ3bHpdH+q7YQRUaqLqa4r7agJIl0CeXTdml7BMWRv3PWHnju9QRJgw2WSl8RhluMuXpBcnIkbgiCS9KccvgkuQytFy4FlTKwbekt+RI85ExT9pCYB9lJnJN6mLIpOz5J6XhOVobCkMEZLArdfLlxUXFXEQpyg/X/iYXTWhwpNBlhTqR9tZrV6Pua9CH1M8QoTTpV+pn8qcWJ1az7UmPFJ7bBnMiTzoQOYyY6ICRhBqF+AegJsisiprKi9U3vivZiSpvMZ9Rq3WISpL++sxraD35AohUGA6VxGOthIeTWF8c0GRz2g1kUyRZJuGC1EsiDiFa9ss1BxUrU4MiwzefND+SiWEXnDSt24EcNw/kwuFILQXc+FwkhYc0wwKQi9DbSN9UaTUnTcfxlEqeN51VlUkZYdT/eBZQ5jMc2FJiceB5GFRSDp9Cxhr6JMr/ib1pL/yUKk2kviRNVmXtxT+f9Hq+sUPN//WdVQn+JpdZKSdm1no2CjeNhq6QZmF//a7hzMllYYGhpZuKXOYfMKPGnX9tfCrRHOTiU5UCLrHfySXgauyTQkAuhnABuRjCs9RvArkY9gAgF2N4vHwr2lDIwtwEy2VhcIdSAYFFjwCQy6JvYqggILAwCAC5LAzuUCogsOgRAHJZ9E0MFQQEFgYBIJeFwR1KBQQWPQJALou+iaGCgMDCIADksjC4Q6mAwKJHAMhlMTdxfs0z/+r6TcZCV7Hy0k++vfqczpl5C60clO83BAzI5Q8vpNzaZXMmO1yp9F992wt+02POBIe+u7neldrsfPmNBR9Tsjqtycy5Pdjqmuh0u+m/1huHZAnm/CKj+pl/jy97+vBnHVFzLtsngb8d+vv3no5/77vLz0V4kS8i/r8GPvvxv79Z9nR82XeXf+tFDkgSoAjokYvFepyjlQAglxdSb0XXOCP3esJxb08AUqG17AMX45T5IpesX343vuzpP57piPGE2Dzcj3n2n/9Y9nT8B//84HkPpUX9hqTEzALk4gGrgL+tQy5rW2IdrtTmkaiU7KB5/8aMJmirTmADKsojuQSi5bLl8peYU5y9ObkR83NGFTUWfvDPak+DWRNrP0RGHP4FIztDMyr/0n9iWhl5pvvw896YOX7QFETOGQI65EKe/0lFp+asnFkL8pZcZl2QHwRk9bk73a7q01Y/yNYSmWH7CR6ivc+mad1dqLgPO/7j6fiyf3cYTY46epc9Hf/+NycXSkcody4R0CaXF7JHUh2uuOwAcluYmFwOlTrdne7R0qy5bDgDWc+Njix7Ov7jgdcM0izErahff4snOz/t1jdeCLn8cGi+kFoIFJZQmTMgl4zweleqYyR8swwmMvi5SGL7bN9nQRtqI6pGkprxpCbpfH/4zlhZNnxhWR51LqJqZC9Jk9rsjD3R8uJqeng2LUvwKIuuZSHAzZKUKXWZ0Xp07fGBV5uYzL22gYgUGYeSivSvDrKE7Lu167wL+7ObXa+eantxxnaHZ3IJfrOidGD4JvP1Ttwcvlt0IkE5gXrl2JHbg21iGufgB3/KDFOBiSJO/gybLX/5tabZ8urh44WtPfHZ70TuSck++3Gh4/ZxR8+RC+2xB3JFUSvXb8q1XS1o7o5OlSGTVXVJjEx7t7qguXtn2sEDJ23HW24fbfzvyD0pr6TnHbv4SaHj9mtFFb8PWi4KFANtXd9/Or7sX5d+J8YoAkAuCkBMfcmTS0WUMGiZT1R+KYxkH8gloXpgN6UMSRRHQBi52BePDUkLUmKyExUEViVlKBQTVEIIKVNqk8uWllilPphlEoorxKFAyMW564MRpVY+Lpad6Rd9t1qBfvHpvOZMr0AZvNN3oulyjsgvwblXmoRlJl5aW1/NGkX/ayYD+FubtreFkkve+esFzd2FrT3iP5E1EELek0tW1aXjDiYks/LisY86qcD/1/Q/2xJeVyiGL0sJ8X3+q3yNezgKyEUHGFNG+5dcMBeIXuHQo5vOkpF87LgI1fJ9/UmYUJwvZ78bEkqsldDYsPj2l/MpuYgJkffTIv053dFN57ECez9os675Axa9IvnFzP4ETDfOyDhqK7GCUh2uZFvP6i0RCFmCtrfFkTSbt0v6eAx5SS6RtnOENdr6bDGR2DgKjsxJv00cwO4vi1JpMcdO4omV++b9a2mp5AiXNSmJ9ruEkpSunN8OfbXs6fh/Duh4vim5FLb2FDR37z1S+oJl5Yaonbn1Vwpbew6U/YmW5iW5FLb2HHf0pBVX73w9i7YEzS4AACAASURBVFIVsV+SD9e2Frb2vHpYamUJK8uzZGb0TIcUxYee/+zesqfjPxo6wEdC2KwI8OQi1UF/fIo2gsIAoWOSi6RLws1D4VvYoMXS9/VjumFWiSjKFZ2mnitJytDQHJDLK7cwkdW3vSBf/6KVTRa0ogUln+WTWVaXYVbiDCWlekbXRtOiLfZBzBoDdXID5KWsPlen2832wpzowTMm580Y+cws+sYotmL6akQDByH07D+xX0Nv9CJKLv+v6X92vpYp6hyf/U5ha09W1SUa4z25vH3++pqt28O3x+aT2VB89jsIoayqS7rkgij3adGH5fni0p/jFaWRn9eJmkHAzAj4mVyEEcsg2twWx5PL6o92OVypF9o1PAcqTGdPLpREdr1Fjjnh5W9owVoJsx7NgmheP5ALW0g6wetDwmd6KXEghCiJNNmTlInevNKKSedaNHeDkMtXv6jkovggJReRR+it6NSMguZuMdJ7ckl79ww+IYCQCyaaLdhV6wW5KFy2lHGWPR3/3tORnwwc5vWFsIkRWFByoVwjjGpjFDXHvGYWPbNLXwJxNglqaCbzF7noGzVZ1zBx9NXg0YpXst11eBwr/mrqFppcqkVyybVdXbl+0+zIZRmQi6KFTX05V+RCJw6qaZGx5ULJxebVWwWaY14Tej1yeeFtvL4eWJaLNWuAbIExtFxiyPTHF8vF07RINFIogN5YLr8PWn6wqkn0+6a9W13Y2pP27szIRXtaVNnwU/y+AkyLNLu1CSNnTi6btkjVXb63Zy/2y/pILujdyIs41+btnF9GkioLUXLBa9ue/vTIJShtAHt8alpCZBIslHSSCt+l0Zos5i/LBSV+MoZ9Lrff5/0mCMVmDWCfCyWUlR9+gadIw60c4gghKyWdm7fL+Po8Rxy6WqOXpPJpWvQy75fJKSp03J41ufzG0CUEDl2+KU0fngG5RKw5TdZcTtSGrEAoKP7F7AHCLDMgF0vYMWxNpDaPRKZkL6erRSt2aK4WhR1z4pTn6QqOEe565IJCK6Iwl7kSys6FWdlqkZUpL9Hi/JILotMf90TTJ2XbhNWinD4nZhNXf1YkqWhkTR15NaltoHFPNFstSrsxSPbFqPbmdfz5e0/HlxkvRRtbLivCLIdrWwpbezIrPlq1buOLq9e+UXKm0HGbrjHRzS8ztFwKfo5tk3vae3BgKdqoW5vw3gzIBQW9Su0UPFDZv8aBqNNO3y0XhIKyw8n6tCSKylTMpxBCm1vIerBQIkkmeVjpDEvUhw8IzhSEkGBhyYTghfC3ssW2m2dywQbIMKYS5T9n9WlpDW3NmX5hix2f0tVol/bCsBpEVD/jcROdMbkgRBaVCJuIG2HyL36SU395lpZL3Q38BgBsohM72+IOzIRcELKE7OuJJVaAuKGW2AvS8x/RpWgFRyhWiyi0QfFhb0jfdkhuGtl1/FwY26ErBz8cb/ZlG3lnRC5YHC+k2bm76tbqcGLFCEXNN7ngCc6GE611w2MCfYw1DbSmJMqXnREKy7J9cH9USONqvd+Vk0WsGEFx4dfym2/wK8iKFRl215tpEULo90HLE98uxtttW3uOt/w5q+KjTTv30F25M7dcoui70bD9X2ipxf6rTS6LvdaLvH7F9N3iz56V7d5f6EpXXv0hfnHxxnMGisAOXQNwTHcLyMV0TeaFwhbq1g3ATy78rNnQI0/I5fvflHpRR0gS8AgAuQR8E81IQfb9lPEfDQXCnjT2saj/GC3wUJmTrT8i33P5WUcafM/FA1aBfxvIJfDbaIYass9c/uMZM33mktEQfIluho0eUNmAXAKqOeZYmQD5Mnbl5R//y7sP6CKEIuL/a+gvP4Rv6M5xV1gIcUAuC4E6lAkILAEEgFyWQCNDFQGBhUAAyGUhUIcyAYElgIBELgUFBevWrVsCVYYqAgKAwHwgAOQyHyhDGYDAEkQAyGUJNjpUGRCYDwSAXOYDZSgDEFiCCAC5LMFGhyoDAvOBAJDLfKC8NMqwJGzt+Srx1Cszqq111Ud/e6PtmPzb6TOSBJkCBQEgF3+2RM2kwz3N/ZtM9GdpiH6RV/rgCzs8wK9lisJf2dzzTYFrMrenWv5RPTGBcSBz59BkgWsysy0X+MUYKfPcBXLxZ1stHXJZ2fJVvmvy7Z5q+TdEfQE3tjrFOVng+mZfBf3+ni95IW0gIgDkMj+t0l6GTRg/Wy5SVehpJPNmuWR8nOmaLHDe2Sx9O0/SxftQUPb1g0TOpgjvM0HKgEUAyGV+mmYxk8sr2wawxZEyBxaHdU37wwLXZHb7OzA5mp+O6c9SgFz8ia4kexGTy9HObNdkwdDH3hxtJwGiF4qof801WeD6ayQYL3oQmSbePOSy/mTitcmaMeYfbXI+LrCdlLsOI9ZVDJYNTzEH6sRUzd17MQl8H63IHZ12jA5uRRnRrZM1LiJqYqqmt2ud4oO11vyY1snKUUGU60nZtfaNqg/WWo/dKRh80kRdthNT5wfHkjLjdFreA7kEZ3Zxop5UdnWpi9ORrBltPC0KfrOidGBY+BzvxM3hu0UnEuRYIrQmM+f2YKtrQvXlcPnxbNbwW9iP+1qtlqOE1Lq/HeXcqyQNV3/zArKefK2fAOucTNSaRTGBBz5K0KwZRJoHAZOQy/475ZQLZIsvT3IPiUhnJPYKXMCnmXh8KEfkF0Iu7ieVg8qUTf3toaIkVLx/kF/iYeH6axVSEhSx9cpjbhlITD9VUqP54VojcrHWTDbyOtOwS3vscToYBA3IZc2ZXnKCvbSoROhjoukyd5CANad0WJFAupSd/ViaiL2wf9smgsxrRWp9d6xIartHRzqeiLg19dj51EL43e4jrsmCgSauSYRb8GsmBMxALlZKCtMO52RSXgZ5wsZZ0y/s753MEMgl1PaIdNknJbaKUGyGRITmtBd8Scb8l/eE1zEFOe7pxsHBmJQ4hOJW2+jAfvTaS0KzFT7AQ310LGZ/GomKCN1zNrHjUXkrRy7HHpzHFDBVee3KamLRBKdcyLhLOMs1tlthB2Ep+uTy+r0a97TD9Ti3rJhojoJ3nU3qxSOwqeeKoJOvv7rkEmk7R84waeuzxQjHJKXf/pLwy5dFqaycLfZBHOPszcmNwHhbI2L+RCjJ1Zsut1AyiAtWjwhoracdmCgjku5KNB1cPEZAHtyoUTNLfSqeGd3BZ8PCn4kRMAO50AVd54MojUFLoc/PILZGWZ3canipvQw/M0UDh5FLY387J4mZM5IRVDaGZzqjD6JU8yCxnWN68Dipv8nRDb7H5JfVqB/juuQS1THlcE8VFCuyXDgyNu1wjcWIRfoW0CMXyho3B+rWyOS9lNWHD3gUV5do9nN/4hFYn4NPnlWewVZxp8A1WdCDT3XV+GPkUt6A22XjNWKzjBJCOTRYj0HWJBeUGTMyWeD6aucbGiIhyjwImIBc6Egub6B2hCa0pBNrDcXdvZgFyvBx7uLgF7mGiUrs5wkIIWtF7jB5xk5MVXbdi2G2EkvMyXmckcRH4vC6K3j8yCdQNI0euTBaFGcK8oBGEcoita/1yIWcae+qNjyaGiGka7m4Bwvk+wAJuRxsy9RWg9b6URLhckourB29IJeHMfJHhXYREBu4CJiAXMjgFwlCC0r9nko7tG/kgqcBJ3d3PDo/wcx4B2YZ3sOqxxQIESPLF3KRZmpyWqFFzzW50C28SusDQ0pPle1jLIysx046JSeL6NNtvcH5ZUhLeEMubHePrC30mwwhZrkAuWj1dTPFmYdc6hQTBw5laxfeojZXloskOM6adyWj6zFjmWHRhqeMoDHyfbdcVJMyqfTZhHQsF2sWntp4tlyCiz5tc7vb7g80sdUivKJUenq/ckUJIW+mRTMkF5gWzaYHBEJeE5DL6mayLvPFHc5RooCOeCjc00Xvywkotov4XEQW0B7JymmRQjZCaL29AK+kivOptNe+wJZFTWuxLK3geC4qk0WTC11jh076lKLUAnyL0SEXlPjJWKfbffP2+3KaiM0awD6XJjud6L1E3Ct3s/QBF7XJvn6IbHLRTiqrtfeWS/U+cOiKCJs4YAJyQbF3ysnqbOMXgzHpdLUoInS/bLWIdlzHxOMjbM0lIjSnq8SJKYBbZvaKXDZeeVTTO5iYl29l7sw4ax5dCH9yKJ21dGjNJNneMlXWeJYmC065kktXuLWdlLJhJusvZWTdxD1V2dG+dZfeNhmWw5J57s79Bw8ePPjiWukumRTFhR65sOmPe6Lpk7JtwmpRTp8TT3xc/VlsJYjOnlznPszbkpi0gSRTyJcuKREYLUULLz14TS7HO3PwUnSDnAClIiFkEgTMQC4Iae8EkUwJzgur2DDiHNst7dTyjlzoooZCjnu6sZffC5ORSHeCKZK5HmdI22oQ9RZpOVN4F1LG7h5p6wefWO27Ke3AzEL+/tqYrOxi1G9CVppFLwkLOK9Fs9TWmBvDyrs4i7P6tARU9GXNNK7WgWspiXIjxbq5B7/NbLCJzldy+b/kDQDYRKdsXvNdm4NcEELBme25d580Ck7WpuHJ3Cr5Dl2yrVbawjv2pKzVvlo2ErwiF7S+OLpxrHJ0im29dU83qsvCDR230YaTMTpwaWyr9Y5c8K4curdYLJHKVJOLaLn8Vcty8YpcsLt6w4nWuuExYYfuWNNAq4Iygt+81IgZZ+Kma6xNsUnX1Z8l+2JL0Cmy523k+kp175fZa95ZLhH03WjY/q9G03QxpiEX0yFrXoWthWSpyFV3RrJlELKuzL3U6MJLSIJrRqhhyg7y4mJqrYx0hLs+/VpXtdEXF4/5lA0SByQCQC4B2SwLqhRZKup0fZqi1OKlI/e1yAWJn0qY/ScXyKcbujdYlEXDtQkRAHIxYaP5WWVKLm7XOXthdDTzaodF56V/MkhmUtJbApIe1lVt+GNR+UPXV82YF9jHoh7uOS6by0qFQMhkCAC5mKzB5kPdQ0XDGi9DEzew/P1GXhn2mcu34TOXPCpLOgzksqSbX6/y1oQ9H3Y1OkWnr7vTNdY0cC09i3/bSJnZkrtj4G+xR/+gjPfqGts+b8EHdL3CyiyJgFzM0lKgJyBgMgSAXEzWYKAuIGAWBIBczNJSoCcgYDIEgFxM1mCgLiBgFgSAXMzSUqAnIGAyBIBcTNZgoC4gYBYEgFzM0lKgJyBgMgSAXEzWYKAuIGAWBIBczNJSoCcgYDIEgFxM1mCgLiBgFgSAXMzSUl7ruW7HQXtt+0hH78OOdvsOzWxhb2bX9l3ufojT9H59sfHD5I3q9w0tG9I+rL36NUnz8PqnfeXH3pybE1s1VYLIxYcAkMviadOwva+/19XCKIMQhya5rD1dy6fB/PKwo3egJI7nF0tM+QClFf7/642n5QceLR7woCZzjwCQy9xjukASNxf3ESIYabFVH6j6HIc1yGVnXithk6sfvx6BT6IMizia30TMEy5xcHLbZcw4Q7bjmStDEArZEnPwRgsxc2pz5EcuLlBloVgTIADkYoJG8lLFVTW29s7sXZgydpTrkEvCx5g1um9lruKEhmSWtGMqKWOf5Y3MbsIE1FL+FpcIrcnput77sKO1RuN7lnw6CAMCFIFAJ5ewvJFUhyv5VG2QosWCTkVedKU6htavFW6EZq/K7tllcyY7XDhLkzP2RMuLq3lbH72QjaVF7UVoRcbq4qGEJpLy4lDkPp9ODiWfhu1vRzn3KvGRI9P1Ny8g68nX6Ce7nbM5QF6oy2x/9ciFxl+uyuELWJP28UUyOWopJycnhpyuxZc92TICSs1rGiKWUVdmCJ8bwoCADgKBTi5obUusw5Xa3L8mVF6DvT3JctJZdQIzhfJfY88q7rtmlFy2v/3Ry42KlM6ovfIzj+Slya8IudwdK8IHUdN/j450SF/wb+qxy9PP/5UeuWQ2Yg9ulXBECkLrdr/Xh+0R+q/xNFZ1lx3PgK42bBb0Dt74XtWnQprez0sMTzURMsHvkkcg4MkFRaw5hYkgOpUf/BZKJXzkqsKh7dkVYatoMkvQ2nc3n8UZ47Ikq4SSCyag5pHIlOygFQgFxb94HJszqafPKY0j3c5BP2o/7XBNJsZGJN1lFFN/rSK4mBxCpH10kba4D25/o//35w+0M3mM1SGXt8j0R2CHEMEY6e5759jHmFCo2yXnFuYaSjQIiXbNZdt7+WS6VCuzezzqAgmWKgKBTy4Ixd1KUgz+0NroZlfqxVtWYz7Y24PnR8UVYuNSckk+2/4iZ86gzW1xDldqfdsLYjoPAUYu5Q34pHR2HhslFMMjkDWlLhC5SMbI1Y+T1wrWipJcRLtmyHY8NRghYvg8BHLRbEmIVCJgBnJB7xL3yoA4MwpK7U92uF7NOyqrzYqM1Xn9sY0u6nOR5kcnlOQSl41JYRZ/lFweJRGGouRS3pCGBfpOLrNQwyCrseVSfpw5WS7b3ttAHSh0KtR+Ce+LoZZL04fMydLd904CdhLjE+LxrOph7UGDkuEWICAgYApyQdStu+uteKI2nShxrlyEUGhF5AWFG0W49Be5+Hy+uoD5PPzqkIslk8xriIeFGSNMmYOd0lQozkFWnYmThdo1LNEb7+BFJWFWNQ/VgCJMjYA5yIW5das/Wo555Fy03JWLEArJHMKmSmP/+mjulFMyLUoNbHKZ12kRSqgiKz6cMUJ77+6q+3jt+T3inlpVc4H4dyW7hiZaVW3D8Z0HTN3jQfl5Q8Ak5MLcuthaCUobSHU4I2X7SRH17+5+O5sHbvkbA5hxgFw4UNI78NoQtxKE762tsOE9u/fLEmjKhPyrdFGJX8e3xNC9M03VsM+FAxSC+giYhVyYW3fXWxlrTmu4cq2FTuy7PdsWFmpByBK09vja4hHmfAlsctFvmtnc0ZkWIYTogtHDy43Vu9fSHbp/LMOTHbw7TtzavzLnFuag7r6S9FS2Q/d4D1mxvl+WzDPObHSEvIsdAfOQC901Vz8Sp3blIoS2t7+q2uSSfMGJl5mWDLlQp6y4aUUWuEW2x+HeHBxHtrHI7pI9u+JuRJxqZ2Yje2WROGjYJpeW8szgxT4ioH5zhoB5yAUxt65sV66Eg2X5rrbo82ypaK9tICIlg60xA7k87OiVyAXzy8bCkqbP2d657vsXaqt3aLzvvG7Hsc6L3eTt6t6R61e73knbDcwidTgIeUTATOTisTKQABAABAIHASCXwGkL0AQQWFQIALksquaEygACgYMAkEvgtAVoAggsKgSAXBZVc0JlAIHAQQDIJXDaAjQBBBYVAkAui6o5oTKAQOAgAOQSOG0BmgACiwoBIJdF1ZxQGUAgcBAAcgmctgBNAIFFhQCQy6JqTqgMIBA4CAC5BE5bgCaAwKJCAMhlUTUnVAYQCBwEgFwCpy1AE0BgUSEA5LKomhMqAwgEDgJALoHTFnOhiWVDmt3Wzr7zdP3TvvJjb2p8qiXszezavsvsOPqvLzZ+mLxR/X05y4a0D2uvehI1F0qDjMWJAJDLImrXna/b8He2Ff+Un49be7qW0QqfcqBE9lViS0z5gEJOR+/D642nxU9hLiLcoCr+QQDIxT+4LoTU5DZyyHxfSfpebK2E7X29ihLEX96RTqvcmddKOOXqx69H0G/oHs1vIuYJPRGNKB5MRfUO2Y5nsm/oHrxBzhv5ujYnciHqBmWaEAEgFxM2mp7KOzNrb2TKJjhHy8gZzxeOC4yQ8DEhoFuZskPmM8kxr0Nl7FiWyGxyvFFL+Vt8SWtyuvCXMVtr4Ov/PCwQ1kUg0MmFHoeWfKpWeXAr/V63gzsaLTR7VXbPLpuTfvQ/uckZe6LlxdUyXwI9zjVqL0IrMlYXDyU04YPTki8ORe6TzpPWhYq7EZ2aUdDcnfbumQ3bY7IqPjre8ufC1p5jFz9JfLv490H4bKWA+aNnJIo0QU8FuFwlO+1ZPA26pZx8xjvkdC2eW/VkywhIOFi6tyuTHtIYMHUERQIUgUAnF3YcWnO/eJYrA3JvT7L8aDR6dJF0iis9DKCxZxV3LDQll+1vf/Ryo3AeIzszwBm1V5o6eGwrSi5HG/87/+Inha090j/H7fjsdzxmn78E1CSRDmAlXPN1VbqogXgaNJkr0cPn6SkC3NlG0sHSmHTgxEURPQgYIhDw5MKOQ3NFp/KD30KphI9cVTi0PbsibBVNZgla++7ms5hB4rIkq4SSCyag5pHIlOygFQgFxb94fATHnD6nNI70gaPkgjnFcfuNkjOr1m1ctW5jZsVHha09h2tbVoTJzCV9MfiOf05cpGUy10l3x+vM1qCHFgnsECIYI9197xz7GLtUlAfRYzGiXXPZ9l4+mS7BQfTGTQp3GQKBTy7sODTZ4A+tjW7WOBpN2arkONfkYuVB9Mln21/kzBl2Akl92wvK/LrXjFwct+NzisREL7+WWdDcnWu7unL9JjHSY8B/5BLCHC4Xi8UTbiVykYwReho0O4jeLh1Ej60Y0a5hB0uzg+hlkyqPNYQESxUBM5ALejfyoivVMSDOjIJS+5PVR6OtyFid1x/byI4ukuZHc39uEaLkouCR8O2x+Rc/UUQuVL8KYRMi+eIxI5fy4x9fJCvW0mnQjFwuSeTS9GFek/JgaUYuBxeqVlCuqRAwBbmw49B2vRVPsI1Yc8qlPBottCLygsKNIlwuPXIJycxvxavL15tqtsmcr5ZMMq8hG1iYMcJ668FOHEl9LnEOsurMVqyTpZMY33gHH/wqzKpM1c9B2QVAwBzkwty61R/hlZjQc9FyVy5CKCRzCJsqjf3ro8U5AEJkWuSH41zn0nKZ82lRSOY7V/ExiSpmwb0roUppjNA+t7sK775reY+4p1bVXFDYNTTRqmobju88sAD9FIo0IQImIRfm1sULz0FpA6kOZ6RsPymi/t3db2fzTbD8jQHMOIFtucwtuYizIaXNIuCS3oH3qnArQfjG2gob3rN7vyyBJkvIv/qwo/frqnTeMW2JKf8cWzdN1bDPRUATfg0RMAu5MLfurrcy1pzWcOVaC514x8rZtrBQC0KWoLXH1xaP0A0vAU4uhq3j282wHLIXTttmEURRt8vDy43Vu9fSHbp/LMOTHbw7TtzavzLnFuag7r6S9FS2Q/d4Dzlb+n5ZMs84glT4BQTUCJiHXOiuufqROLUrFyG0vf1VtmNFcLU4XMkXnEkBb7mom2SmMXSDHPGnELIgUxvhUnKUBMfZJZeKmKb7VqbkW0EI7cxsZK8sChKwTOVrSjNVFfItCQTMQy6IuXWVrlzWTJblu9qiz7Olor22gYiUDLbGHNjTornrZV6SC0IoeGNhSdPnxBJ52NF9/0Jt9Q6NV6fX7TjWebEbu286ekeuX+16J2138NxpC5IWPwJmIpfF3xpQQ0BgESEA5LKIGhOqAggEEgJALoHUGqALILCIEAByWUSNCVUBBAIJASCXQGoN0AUQWEQIALksosaEqgACgYQAkEsgtQboAggsIgSAXBZRY0JVAIFAQkBGLlu2bAmDP0AAEAAE5gIBIJe5QBFkAAKAgAoBJbkEklUFugACgICJEQByMXHjgeqAQCAjAOQSyK0DugECJkYAyMXEjRdgqlsStvZ8lXjqlQBTS1udkFPd6T31+Os/8OcvBIBc/IUsllsz6XBPc/8mE/1ZGjpU6nR3uqV/rTcO+bU8mfBXNvd8U+CazO2pNsOHGSI3EW3f7qmWfWRYViO4mCUCQC6zBNAw+9Ihl5UtX+W7Js00Vi25MUOTBa7JzBZyzKRhO8LNGSEA5DIj2HzO1F6GTRg/Wy6SVtE3Rjvd7nmzXDI+znRNFjjvbI6VVDBBKLY+1TlZ4PpqZ4YJlDWhikAu89Noi5lcXtk2MFng+ialQjjtfn4gnYtSQs79Ld81mT/QAJOjuYBTIQPIRQGIny4XMbkc7cx2TRYMfazxpUw/gTmXYo/tHpkscD3cfXQuhYIsgoB5yGX9ycRrkzVjzD/a5HxcYDspdx1GrKsYLBueYg7Uiamau/diEvgTpityR6cdo4NbUUZ062SNi4iamKrp7VrHn+6KELLmx7ROVo4KolxPyq61b1yv7DLWY3cKBp80UZftxNT5wbGkzDhlInbtgVyCM7s4UU8qu7rUxelI1ow2nhYFv1lROjB8k7l+J24O3y06kSDHEqE1mTm3B1tdE7yHmIbrznBlWsNvYT/ua7XaZsuhwXr39PmbFSjWnnH3SdMEwdz1pKTuJCcDIRS3uvDOkYEnjTSBe7ppVN6+RE79tQrr+2P1OM1Uma0YxdqPfIkFNn05uJVvwQSuLI1uIC85rOWrAtfkkVul8mi4mj0CJiGX/XfKKRfIFl+e5EqrIRmJvQIX8GkmHh/KEfmFkIv7SeWgMmVTf3uohGXx/kFGYdxCz3T9NenMaYQitl55zN8VwlMlNZoTeCNysdZMNvI607BrMnHmHgwDcllzpreNW1ESuGOi6XKOxC/WnNJhadVJSMNiZORSmojdFn/bJoIs4YhDhBQco48rVc1XVpMmJaXJVCBImFNy6RmrEdOMjh25KzVTTXM+k5aD6UxoDjHwJFfqBlKxJBTfdAA7jLo3KOLhcrYImIFcrJQUph3OyaS8DDIC4qzpF/b3TmYI5BJqe0T605MSW0UofohFhOa0F5DHmuPLe/h8HvwnyHFPNw4OxqTE4QemjQ7sR6+9xBKhwgd4qI+OxeynvT8idM/ZxI5H5a0cuRx7cB734KnKa1dWE4smOOVCxl3CWa6x3fxTlEnVJ5fX7+EB43qcW1ZMNEfBu84m9T7BD+SeK4JOvv7qkkuk7RxhlrY+W0wk1jM4Mif99peEPr4sSmXlbLEP4hhnb05uBMbbGhHzJ0JJrt50uYWScf2ga7JgoInjZpmuEmsIWK0vTuonQH1xR8p06F754Nj+wpNWah6uz9ja+IgQ7uRuKk6UMzy4VewP7qmymgxrI2H5/nac0Govwiz2pMR2lomKKI659hiLkrqBTEGEUG4snhl9psnuNgAACL5JREFUtZMcN6m8CdczR8AM5EIXdJ0PojQGLa15fgaxNcrq5FbDS+1lpKsJBg4jl8b+dk4SM2eENAiVjeGZzuiDKNU8SIQ5pgc/EutvcnSD7zH5ZTXqx7guuUR1TDncUwXFiiwXjoxNO1xjMWKRvgX0yIWyxs2BOvH8MyL3paw+F7+6RLOf+xOPwPqcAXene7Q0S6ZJxZ0C12RBT7UsEl+EhIQ8CLy/Y8eOqTRFaHMPXpPep2hNjYQQ5RMCJiAXOpLLGzgrWllFMnS1huLuXswCZTU0g4pHSHRiP37WSeRircgdJub0xFRl170YZivxRVI5jzOS+EgcXncFWxySMS/d1yMXRosqM57a8xpFSCKNQnrkktXn7nS7qk+o8p7pxaZKHwNK13JxDxbI9wEScjnYpt4qYj5ySQFyUXWL2UWYgFzI4BcJQqu61GYeHdyournxGh7tvpELtq5P7u54dF5wLjowy/AeVj2mYFtyfSEXZuzME7nQLbxK6wOjlnWtlSMXZD12Ur7Zl7pdWm9wfhkCti65sKbQbhoCINdeG1s1HVgc6cvlyJ4H1LAl0yLaVXTAnC4qU/UPGkEtFyAXHXhmHG0ecqlTTBy4Klu78Ba1ubJcJMFx1rwrGV2PGcsMi+Q1h5aLtjElqTDDkI7lYs3CUxvPlktw0adtbnfb/YEmtlqEV5RKT++XPL6CXrrTIpZATgpCLjm5WK8QR8l0fVf71gixleXIyOUYk4vwLBFK8/gL0yKPEM0ogQnIZXUzeax9cYdzlCjqSjwU7umi98WuSRLEdhGfizi5kPdXQYaspwqRst/19gK8BC5OndJe+wJPW2pai2XJBEej1hNS19ihkz6lKJncGVzokAtK/GSs0+2+eft9OU3EZg1gn0uTnU70XiLulbtZ+oCLKmVfP0Q2uegllZOCkE1OLjSN+1ESL8Qqx1wuR9ZknOVCu4qvjvD9O/F7AODQFVpnzn5NQC4o9k45WVxs/GIwJp2uFkWE7petFtHpj2Pi8RG25hIRmtNV4sQUwC0ze0UuG688qukdTMzLZ8sNKM6aRxfCnxxKZ7iH1kyS7S1TZY1sVSI45UouXeHmrH2ulXTJBZWNkWWRqcqO9q279LbJMEmWzHN37mM36RfXSndx0lVBPXJh0x/3RNMnZduE1aKcPiee9bj6s9hKEJ09uc59mLclMWkDSaYqQYio3ufyYilaNPpoNjm5JJH1MrJ1BXPe+oytVQ8q2YYmgdC9IxdEl97c0+d770SzxT5BUd3fiIY0vBTdKfdx6yaHG14jYAZyQUh7J4hkSiAkemEVexycY7ul3SLekQtx06jn7Y29/F6YjES6nqoozvU4g9tPYeAC4Ez3jN092DGk/qf23ZR2iAswf21MVjYy9Zto7GFxdzqvRbPU1pgbw9SBIv/fWX1aAir6smYaV+vAtZRE3r5AyErnFIab6BxKwpWTC8qglqAcgalGfqXPS3JBEVubycKzGk+6Vq3EDKHg2r/mwyY6NS5zEGMOcsH7MTLbc+9yOziHJ3Or5Dt0ybZaaQvv2JOyVvtq2UjwilzQ+uLoxrHK0Sm29dY93aguCyMft9GGk7Eh4dLYVusdueBdOXRvsVgilakmF9Fy+auW5eIVuWB39YYTrXXDY8IO3bGmgVYFZQS/eakRk9TETddYm2KTrqs/S/bFlqBT3UdckwUj11dqdUc5KQgpFOSC0PqTSb3C/l1hT61s7iOXI7vFTYuofLZzWvTHU6LRIZfMGNj+LzTLXP+ahlzmuuIgTxcBayFZKnLVnZFsGYSsK3MvNbrwJl3BNSMISNlBXlxMrZWRjnA3oH9Dav96xDWZ318v90EFtM7mUQ7IxTxtNV+akqWiTtenKcoCXzpyX4tcUFA22adrvk8uVKeQdxd2qGaYyprD9UwQAHKZCWqLOw8lF7frnL0wOppt0g2Lzkv/ZJDMpKS3BCQYrKva8Mei8oeurzLLhyMt7GNRaefMZ3BJwAd0CMgloJtnYZQ7VDSs8TI0cQDL32/k1WOfuXwbPnPJo7Kkw0AuS7r59SpvTdjzYVejU3T6ujtdY00D19Kz+LeNlJktuTsG/hZ79A/K+IC8Dqm4cxA+oOvfpgFy8S++IB0QWLIIKMlFdSQjRAACgAAgMBMEgFxmghrkAQQAAY8ISOSyZI03qDggAAj4AwEgF3+gCjIBAUAAAblAJwAEAAG/IADk4hdYQSggAAgAuUAfAAQAAb8gAOTiF1hBKCAACCjJpfLyD5+OL3v6zQ+++8svmuMBH0AAEAAEZoiADrmML8MU849nOmZ6tsUM1YFsgAAgsFgQUJILrVda2m9G//69p+PLvmv97WKpKdQDEAAE5hUBbXLBKhT8/N/jy572Pjuv6kBhgAAgsFgQ0CeXrF98B+SyWJoZ6gEIzD8CQC7zjzmUCAgsCQSAXJZEM0MlAYH5R0CfXPb+6l/jy55+/qv8+VcKSgQEAAHzI6BPLui50ZFlT8d/8G3DcxlG3x8zPwZQA0AAEPADAgbkgiIO/+rbkf+FN7yML3v61S8q/VA8iAQEAIHFigCQy2JtWagXILDACBiQC50W/fCb0t+lmeW4iAUGE4oHBAABCQF9cqEO3Xu/TpMSQwgQAAQAAW8R0CcX2ETnLYaQDhAABDQQAHLRAAWiAAFAYPYIALnMHkOQAAgAAhoIALlogAJRgAAgMHsE9MkF3oqePbogARBYwghok4v0PZfL8D2XJdw7oOqAwCwQUJIL+8wl3ZX7zU+74Ut0swAXsgICSxkBHXL55gffff5/umGLy1LuGlB3QGB2CCjJZXbSIDcgAAgAAgwBIBfoCoAAIOAXBIBc/AIrCAUEAAEgF+gDgAAg4BcEgFz8AisIBQQAASAX6AOAACDgFwSAXPwCKwgFBAABIBfoA4AAIOAXBIBc/AIrCAUEAAEgF+gDgAAg4BcEgFz8AisIBQQAASAX6AOAACDgFwSAXPwCKwgFBACB/w9/75ygYZ5T8wAAAABJRU5ErkJggg==;" vertex="1" parent="1">
                    <mxGeometry x="-5.889999999999986" y="-302" width="261.78" height="190" as="geometry"/>
                </mxCell>
                <mxCell id="DEv8lxhfkDtFVVVZY2zk-185" value="&lt;ul style=&quot;padding: 0px 0px 0px 28px; margin: 0px; color: rgb(37, 41, 51); font-family: -apple-system, system-ui, &amp;quot;Segoe UI&amp;quot;, Roboto, Ubuntu, Cantarell, &amp;quot;Noto Sans&amp;quot;, sans-serif, BlinkMacSystemFont, &amp;quot;Helvetica Neue&amp;quot;, &amp;quot;PingFang SC&amp;quot;, &amp;quot;Hiragino Sans GB&amp;quot;, &amp;quot;Microsoft YaHei&amp;quot;, Arial; font-size: 16px; text-align: start; text-wrap: wrap; background-color: rgb(255, 255, 255);&quot;&gt;&lt;li style=&quot;list-style: inherit; margin-bottom: 0px;&quot;&gt;&lt;br&gt;&lt;/li&gt;&lt;/ul&gt;" style="text;html=1;align=center;verticalAlign=middle;resizable=0;points=[];autosize=1;strokeColor=none;fillColor=none;rotation=90;" vertex="1" parent="1">
                    <mxGeometry x="190" y="-470" width="50" height="40" as="geometry"/>
                </mxCell>
            </root>
        </mxGraphModel>
    </diagram>
    <diagram id="Xv-zrjenXwBVzWZ0dnkQ" name="第 2 页">
        <mxGraphModel dx="989" dy="968" grid="1" gridSize="10" guides="1" tooltips="1" connect="1" arrows="1" fold="1" page="1" pageScale="1" pageWidth="827" pageHeight="1169" math="0" shadow="0">
            <root>
                <mxCell id="0"/>
                <mxCell id="1" parent="0"/>
                <mxCell id="8C-HkthIrodKOwXQxMnq-22" value="" style="shape=image;verticalLabelPosition=bottom;labelBackgroundColor=default;verticalAlign=top;aspect=fixed;imageAspect=0;image=data:image/png,iVBORw0KGgoAAAANSUhEUgAAAMkAAAEFCAIAAADG+VQpAAAgAElEQVR4Aey9d3Ac15kvyl2nXXu9tjJJADPT3Sd37smDnEGAyBkEc84QsxhNSgxiBkkw56RsWcGyZFkOCpZlede21ut737316r7aV3Vf7d31rncddt/9671zzkxjAAIgSFGSbbHqq66eno7n/M73fec7X5jw0//zP9/64HcBVh/AWEVYw0TDBBCWRRRQAigSRPg+oVn/Zp+Z3tcIUygLURZknFTKj2PMyCAZBI9AGBuIDBLEzP8JiQGySMNMRVSShtnY5F8IqTke0qipsZuQQnSNmWAoQWbeNgFijOfdIDORbo3xFP9jP8EdhB2KoxPe++V/fvf9308C9SGkq0jXsKFhAxAvQy4gNiBWFjmAuJl//dOG7GjEUwWFqBei/C+CONFBilDEiQjSYYTC9BF5PP0v9BCOIBzBmTPl+QRFEPR8gtADyNNGJ4Aj4t8wwJHbIJVERiSA+fHsG0IShSQqT+Y7LIrFEXl8yJZG5YX+QYAj/r7cQYRfzl9e3ASQiMr4PTUa1QY7aEjLA+JpyPnECSIHw/CEH/3yP9/48W8nqcOwNQxM/ANU5GjYFqNBci+S4RYcjsNIxYaSIQ0bCBkUGkwSMBiwGLB05FDOvThjw8ikyCbIkSiUWxM6gHCiyGHQRtj02Vj2zjCWNmy8alj3mVzmhW/C5248TSEsl3KaTNlkxrdBwhQy5D4AmRrwCMtXqZWHE9iM51DCAURMRC1MbU7ERthRNSvC4gpBVItDTCDDkDLBtMIQl0JcDEkckzCmEBEEsK3gqGoEAXZV0wzpusZslbgaHnmojDHGPs6/IHImvPfL//3d934/SW0IcRGTbqwsLmVp2NGwC3BYga6GrPFjS8WGJIA4tgjMEDAwMAmwBGIcghyMHI4bbPAtciRhYgKi5+o4TyeKFMR4BPkLCNMIU9NE5Y5CSOYIUwlVMAlhLLchjIftyyPZWwVx9UCShrCGMASYAIwABojrDArCQXEfrkVIgkTTKISW5URL6mKT6cT8ykqtIFclZi6La9TNwpal6mHHqFq8sYuaDqBhQMMadTXiaMTTSAqQAsGowpCrBzZkkeLaepi81wwXxKZYOfb9IcalgUI8FY9ACnL+EEhD7oQfD8EWlUN2KLYsBdqxZOWUqd0l5XXjxFY2G4MCWxjoEl6OGcHAxMBUAoQSGxuWgimgUrUyMXYwchFyCHUhtbFuQ2pqiAHIEDYg0YcRwAzrFmCGRnUVMwVRYjkKIiqmKuawCwKsEoYNW8U0CDGgehBiFVMFEZ9UTDXCQpkjKiQ+aZBomALMQhAHAQ4iEiIsB8AARxhREeEncKKqhiBibV2tT71yiCTveezYviX7OgKMTDTdIDYgNiizMTUJs3Ndkl/a9fiTS0CYKZRqVNeIrmE9CKhGbN2OEzOuYTfItV7XdPJPXL04ZbHROW3+2Rd25TifV1iYA4sDcQRSkfOHQAB5ab41WWsUfGsEbHGRZMZr6jpbOuZMmdousEUB4Rp9RnYMF4jZwNKwkcGWYRthgzpakHC+Ba2wnYSIBXiPmHG7KElLWK5Hocs1MxI2WZLBqBnyCqwyGnKxZuM0bzMEh+NbgJhpR4IKooYbSxVDakFiqUhXILXcWDxVrFsRFekhjXCppNtuJBnUiBNOpE8DTEW65caSBWWAmBo2VMgkaZBKApyX6yHLud8y77Ote23rfst+UDcDODOTEGeqgGMLYVpeXXr1hT0g9ldb+3cuP9QRMGgwQZFrAaIDzBQNYarnpEKRivo931iSF4VWCkYLCLFVbDFm2cTik5ycoKYgU/VoHsLMjJ25ftHtva+tc/bpr2/PdT6rMo/LRK71jkAasv8QCCJ3wo/+/n9/573fT4ZNoSHag6lhSZaKzIBqECNWWtFcVDpVsDQpm6Tiz4Yh6cafEFkI22qIPrZpX1NlJ8w1QgFUPaVhy7KdOjVjyYJjuy8eXX3m8vrnds44ZObGCQh7XsFja/o7Sued2njhyLrjPTVzmRqGSIdIZ8xB2ILY5ISMM2evLFi04sy5q1evf33Nuq0qMA0rtnjpmnPnnzxx6vKlK8+WlNUadvzg4ZPHT148ffbqnr1HL11+9sSpy1SPEBaev6jv1JmrxwbOHx04n8gvV6GpQhMgExJ+fxUygAxI7J6+VXOPHOw5drC7/8DCkyeC5RUBMfVRkQ6JpUFdARQihjArKCk8d21f0Lxn+eZ1MzfVkkj42LOPF9cXx4qTKzc8HKShmrrG1QPLwzWVW55cvPH41w5ffOTaN3ZOX1KDonD7rt0L+npUFoAMa0Q/cPVxGqWYmmefuPBQ5edjqcoD5zYErC+q1FWJrfE51giU6Ti/Bz+JHWQCZE/44d//v6//+Pc5qCUo2PIorMjSsFVa0VJR3SqUa98ckK3yWzeiSh6ByILIgciZXti3f9bF8H1lELAVex7p0zabhNpGtDzYnXioLF+puvboN7vzFhMYdSMF19a+PDDjySJlqqPFTeAxZGuQQsyS+cW67ck7I+ZcvPrMkhVrIXFtr+DCledMNx/S8JT6TsQiKnJmz1vx+P7j1IwfOHx60dK1zW0zjp+64kaKzlx4qrSysaVj1oUrz1leQUA1Fi9bt2PnIRXaKjSx7kaTxW40qSKqYYMQJ0Dt+6KxL8XiX4jEv5Qo/AsrHEKminRmhWOpEjear0AKEIGEhBPhXfu2KcbEOUuXVnYayLMHntha3ZXfvrDm6Ne/9lDlZ5at2d6zsTZe1nXy9W1V0y3NzWufU/n42Ycnh+/T7Uj/81uCYagwtmjZqoWPdqreRMM0N3xt3aTCz0E9uW7HfNX6ikbD2pCZ+7h6YbTe+SiOQ2Ro2Jrwzt//52s//v1k0hqiHDEjYkvaJsoqWyuq24X1YcjH+MrZaG8pgQX5HDB2+OGLtWpXxEse23Sl9r4uBgGbHO5pXrx30bGBpZee3fj6Qn2DYxRY0dTVtS8XBZpgnqdSGsQghJCGCOSCLapwHYjPQwOAnjh3NZoq17CL9fjZC89GEhXESETi5Tv3HNv1+MCps0/2H7ukIu9A/7nWzrlTG6cd7D+XFzL7j12sa+hZtXb7pWsv7Hx84PH9JwdOXj1++roKXQkv3Y4Qw5bYwshOlNbG27u9zmmRrlnR7rmTEqX8NKQHADWcGDG8oKZryOYmAOwAYqnUCCE9QJQQg0vXL1q0qWfu5paHD83o2VrxtWOPVS1iierGx55emRO5P1fPK6gLH7i6aVLyKyHANu7e1Lg2ZcDy088dsCsd1UC6bkACHzAeUFBEJdLqZmtZpr4b5sVDZq+ZDv1YD0JucTQmvPTW/7z2yj/ksfYxsCUsXmZZZWtlTYfC29TQsOlDyt8ZDVsatgg0FEwCFMztXLKlc0df9coNiZ12oIBgY0HDmmc6vt3izI3B8h1zDi6zN1Mtajupq6teTubVIdULGSioawpFGibS9CDGAMeWxuyT56+5sWINuYjFTp97KpqsjCYqz196btbclW6kpLqus//YRUAi+w6eae2YUzWl/eCR85BEDh+7WFvfveLhLQMnr05t7J3a1Fvb0FNS0ZTBlqEi3zarY2DWds6sXLEy1ddXsHpdcsXqYG1zCHFsDRI0hJbjaigMcArCuAZcBD1CQLIw/9ClNXsuLyrtsY5e27ftykKzPi9SWrXr6RVKTAvooGhq4f7L2+6N/LmKcHVV59curiwpje17dkVQN1XoIKIDRIPAC+JYEOeHSIFG40LZMoehSv78RMA07KFpbL35we9e+/HvJ8Gm0bClIp0YYS9aOGXqtNr6nnC8SEUG4AaC4dxrdGwZELMgCTHNzA8XHl5z+NuLv9UJZiMcM4i3e/aJR4q2TSHTZhYtv7rm+WX2Zl2Ne1bRlVUvFU1qNoMpTCzIdEh130wvscVnCdQ+c+G6Gy3UkIVY5PS5J6LJ8vLq5tPnnywqm1pQPGXL9n1HBi7odnLfoVMt7TOrprQe6D8DiXf42Pna+s7yqqbL156vb+qJpyrqGrrqm3ok01KhPgRbuguQRVRDVyySZ1IYVVEEA3syycJW2vKsa0jXuAIQBlBHWMUYqzTn9DPrDl1fYpblnr1y4cC3FilxLVXauvepJVpYVQxSUld+6NKOB8N/HsIY6s5j+wf2XWstblEVAgCyVCFtuehAEQVbKrU09kfCt77/89+8/M6v8+iofEtFZnP79J4Zi6bNXDp91rJZ85aZXowYjob1YeNmDGxpmClYDwGGsLNq+aZH1+yPgyKLxChxo6zk7LYnT2y8snrWtrYpM0sT9a5eFPPKdmw9BDRL5ZcMrgL5JlMxMhjSrUNHT9jhBCAWpHb/wGk7nDSc2Jbtu06fv3rliee6p895/MBRL1awZfuuusa24vIp+w4N5Clo36GBxtYuSK2ispoLV566cOWp0+evVtc1Z/gQVbl9gZu4Qnw+aHAdnytYpoKsEHJCfGtKlStzCbfQCuKqBkSunB3zWR9h+/v3L161MEhyTp0/8vjBx6CNEqX5B070aybFjl1YVb27/0gOwnnctEGbpy85/tTDCgMKMRXIpJYJMeOfTDCgCDIqlt2Gt/8fHN+6KbYUaGjYhYQvmwhly9awLhQRdivY0tU0tmykWiRoW2qEIQ9hR6cRCyZ1NWagOIURNWhjLWyQhAZcDfCZmoKZihnIWltEhDNCgJlueRDrvl1ewzqkpsA9I6ajIv6GcgwI0zzTCDdPKJBCZqqIBVQUULGKKLVcqWtm1ijTwFIRVuSqJdQ5M4N6CBoSVSNhi9uo5AADWMxskKEhg+gOYtzmHAQEECOgQQVBFSNiGSEIOXapoVJDowYwbdVC63cvXvVY14PBkEItBTONzyckasVSL8UCWzo3aoykdWVO/lgVrGEPTcvEm2JLRSZiEQ2FxYoBV1T9Dhv2bWPyLW4DUyAD2ATQABpD0KTYxciF0FQQUxBTgaFplqbZlEQQDiPsQWQB3j1c0ACk+0xLYovDC1GAqN/6CuK4AXzCy41S8oNVfpCIg7wzQpCE+FRA4oDJ4wokcrRksDVol88cSYu/EBoDW9l2Pm4t4wYzLitNBZqIhTXsqNDWBOwURCDlCpNKOLBUohPb65g55+DZXVsPrjVSZpBBhZoqtwTx4SG2HC6AUsj4aw9rfP/nsG7+RH5msPWz37z89tgy0eItglxBjjCf8J7zP8bfuSm25HyTN7dgRQQ7FHkEeHkE5REEkImBq0ELIFvDNkS2MF5w06ukG7ElJQVID2uufd+0Kcd2ncggaZBvZY7cJrZEm5gasrKIw0vMh8R4w7qCmfSq0HTTKTByqBIy7ZDOFGIJW4OZ0W75RJ7rnXRUpiW5700b4aM+AfL+NSa8+bPfvPL2rwOj61uiUbJMvXwYSa4gx5NkAIPi4OYIk62JGeaL066uRoOEBAlB0KYgLIY1N6cBzrS4dRRkCIqVE7kFQibK7R1sqQyS0jb3rJ9pbCmcbw2Sr2zJYZP17Wm+lcZWmv1IOWVlmTflir6uEkOjpkoMZLkh5oSYGSKewldys0/mVlA5krMelM0s5f4nKQ1lX/AlMmxMeOdvf/Ptt36tknZ1dPuW39+Sn2d9mK/Ayu+58TvHOiK4EddLFOFToKY5PwdWhjjH0rjJ42MiHyt3+onSOC6/YgQjMyASQ2nnEZXy+aA60lfL6fmdfr0737xBYkz44d/+5jtv/lq7CbZGe/aHwtYfYAN9ZNgarQH/ZI/n3cXWMHzfxdawBrntn+PHFhdSKjL5FvJthqRW4Qv4P/pReBdbtw2mYRdybL39N//+rTf+aVKgbnR9SyAJ8flzQDWE5doWXrO20En9JcibO0QMe/wf4M+72LpTncKx9dZP/u3V7/5zUGsaFVt8/mxL+5YKHUlpewQ3FtzF1h89t75TeMq+D8fWuz/97es/+LWKWkfDloosL1YytbG3rWteffN0osfFgq40d93F1l1gjdwCQt+6GbYgdVraZ8ZTVbqVX1Xb0dw+W4WuiJxxOT+7y7dGshRkj+BP5/64sKUiS8OuDBGJxMvbu+Zq2BPLi3exNfKQ/XSCadhXj4Ctkcy+loxGDGlmVW1bc/tMokchDQtnbRm6mHZDHXb3uz8/zS0wTmxxd0pAvEiirKVjFjViiHkiUNHJhMXexdZdBja8BcaLrRCwCkpqO3rmWW4+YhEZjyq2d/nW8Db9NPOq7G8fL7aKyqb2zlpSXF7vRIoS+ZUqtO7yrex2vLt/YwuMC1uIeR098zp75nV0z23tnN3Y0isciN27fOvGBr17xG+BcWFLw3ZeiEEahjSMWIToUYUv+9h3seW3492dG1tgnNjivoE+idWeuzLxrpp1kxYYL7ZuyLlzF1s3adkbx/Gn7UiA+9gMtcuPYN9C5g35BbgrBCBp1++M73k6DOG2GvGWnVdv6ynDAPGJPHTYO/yJ/kRGEI8HW3xNw3eqkTvp2NeM7/xt+Nj4N5SN69/h43SmyHZslK8x7K3+RDv+o1+kgog70I6Db93F1kffGXeCDf8BjQSRD+IuttIxQnf51p2E5i1iS/gGppV6zGO8AOEpKsWA8yXaqO/Hczeke1GGefly1s0MWRk7NExOiUgNkX+Q5yoSQRlBHs7KExHyCA5sqkPisWSYgwUh5VGN/KGmUAd5OpphoTgA8yQAPBmguKFIXmLzoPh0aM2o35J54bsnjNoC48cWzxuoIkfhUYo8P6VQv24BWzIvKMDEREzkecVxLwWL2u4pbFTdfB0DlRoB6gWorfBAYR0RBnm6aC6zc0kshD0EdcbD1HUFe5pXYEcLeuoDAchCzGIgbuCkQhyEY0FiYKDz3FQaDCIngByg2xrhyacJMzQNP0SLAyT6oOooLBqEFOu0vb0paf8FAPlBxkLUUomjUqwS/vS7dNstMF5sqciENEz0eGFJPTUSIeAALIP33XHzLY4VTpBgpKcqe9dd+C9Nx3807+ArefGKPBoRGcIxwRgTgghGBEEMeRg7/w0gwkFiqsg1NJf/jKD/+jrbv5nlBWmuaYYY8HSlNgyL8u4JYapgj5viVLR6anhTR3Gl/qBLJuYikotdD8OV9cbubqcC/aWGFIVGmZ547aXrb53/fML6AiZhSF0RuRVXcTq/12037qf8wvFiS8N2S/vMqU29BcV1ze2zG1tnShs94KmCxykTeYQ5RixAvDwzNfvRy5HV38yzWu9jJRAiBeuaGQ3oEdWMKtQGhEKMECGEUWAYE5ERMpwQ5eH5VNMJYpfPLnvpMFGt4GTKclXa2dl85uDWr/dvasn7vEJICMfixfXPH3jkwNL2XQ/Pf2LfhmnRnLCWV5Isvfz4njWL2tf0Lbx2aENlkW0btg7dMMNvfmf7rgU5Ls4zgMfzppK4hsOZUIC73Ot2WiCNrXd/+tvvvDno03yjfUtFFiQeYjGAI064eOaclbqdDAFL6FtSv7mpvsXDahFkydq2tr6vLT35RvHO93s2Pu+070CYqIZXOH9X1ebrUx65gKYu/muS0qgOdaN89tqO7adKtl2/r3L2/Xo0gIjBcxXZ/+2HXXX5n5uo67lM52ofwhGHXj6wrT1ngoJZEEeIlazKT4ax6jK6eVnv/r6mCLyfIMNiFsNAQfSZvSvntlabxNChZwO9d/bU978dz6d/YaM44jk/bC0TifopZz+3/flpG8S7P/vdTbAFTQ25mMXdSGl904yq2o4QsHlWcG47HWcMGWOQImSgaFFRx7zlA6+yFS/Qtl2wdoNG7aqexZ2n/1ad2R9ecnz+mR9+sWAhNhPLNmxv2v0t0LXRXnlu3tWfTyxqz2GeZUVWrPnaty/fS40vTNQNhRqIukGeXBmdPXqgOThB4Xm5XUjcEE2pwKTUeHzL8mXtUQNODEEzaERqy0sXtdd9c/usMosRaFAYdrQIM+Dbbzc1FHyBaAlMTUBNjefVHSH6+bbb+tN2IUAGj9l/+2/+/bXv/UsItMhYjBv5llir1vOL6lra53b3LvNiZZBEhdOpJXJgDGavG6MFeXg+NiFxILX7dl/4SsO+SSwGMdJZeNuF1z9TuQV65XksXrP8UOnm1zRSvXbf9Qca+3P1pI7M3h1Ph7s35zilEOtHTl09tu2vsfW5yYaNkImRrRIaIuTEwJE6dYJKAgAbGNk6jDDizZneeXnvwzXaV9QAVkE4D9mnd2/89p4Fr21oK8EEQwNjN6wVqCHy2ssLF3QHMa3ExIYkIlNB+cnrxviuu3+N1gJ8zefdn/3ute/9anJw6ujYMvIUAKiBddt0Ej3TF4dj5YBn9RxE1UiIvFFO81SDAlvnv9qwx8fWsgvv3WPV5OkpjXnNc1d37Hr2Xrd15fk37iucH8aGTvDSR4/nd62baJerOtm7a/uVvfcCexImYZ2nrXcVHA+RxOljJzpDExRsGZCEtZCCYh2NjS/und9qPaAHoaYmclH8r/SoiuMqSx5bP+/IilYP5AAccbUw1Ox3X14/renzGktxjZ4n1vZdanluxNGa7+7xMVqAr1X/+IP/+M6bvx6DbwFi1ja0IN1SESVGpGfGEh6Iwe1bHwpbk/U4V9ixM2//C4kNzz5E81U9vnT3VTDjZMBsWPL4E9bC6xorYobT0f8mbtk22aoCzJwzbfa3v5kTjvw5Bxb2GDQsAC2Ezw8caVK+AEOY8MxdsHda+0t7Z7bmB0wMNBijildbWdNazggBOWZk6/LWE2umRrTJELoWYAzq/8/3uirjE4Bp8+ziFItKWIMZN8dowbt/jdYCPrb+bQxsQeqUV7e2dc5vbJnV3rW4oqZFpNeWSaHSnvLj51uAWH27Od/KoxFEeIrKIpc2D/zN1ANv1h98p2jL1z8XaQaIFTU1zTr0Yu3BtzsH/q58w/M5RpHOKwLFFIjfeGvbwjYaYmqQpGyADq9q/8aezu/3z3x9a+OL62ub4/eVlE5942DPt3fVvvlY5du7mq711VWG7mmo63hix4rLO1uv72h85fHu1iJEtQCGhgHMfTu3vn/mr+L0IQXbGgEi3aPhC8S7fGs09Ix9PI2tN94aC1vCrs1nghZPcypNprz2hMRT9nbsh4l/06mCVGwE+VRAl5NVFelerEC3IyFAs7OTRZMFPLOeqDKEIaJAzTH1Pdu2f3CBNLCvYGSH7BSmNRSXQWqPSChdocnSiU2J7dixeKKIElcnLoKRHMWOVxf/7Ac9q5q/SnlGVrlWzeco4rvSrGsc33WjAvBpP3IL2PKznGVY1O1ha9QWz7AH6ffiGzWYAkkQYJFhVWRXIw5E8eMHDj1/sZoaNM9gKrF5gS7ijEJp2c1zDmILE5sYLsQWxgalLB4P/+jtV7dP/9JkNImvBCBHwZZc9rnLtz7kiLplbGmYl2LL5lXZ+x/ybcTl2euJEmHyiFiORBSimIrdkGGGHTsE9VwcDWJXJgX10wtm72hYF8uOPAutxq32VC5AiWSWRCesyI3yWl8gpSGsQr6eeBdbd6IfDY6t9z74jzfe+rcgaB59npjtQ6dn7A63oW+NyrSyPuZGbGV4GM+oawDEF6cBgkGUCCE7gPUQJirmK4YQsRuJ5x4XNe40TDm2CMeWzPoMeHlCTCFQYAKBMMR0dL6VXRJnPF9x95wMtl5/89d+HpuMyBu1dYYKi9ubnw8Ba5bb6nCBmHGdEPDiySltARGLQRTAUQXbIYIUjDROODsDqr8v8tozhQOL34RnrRVpfDN3JhqGAEa5LsezbdsKNhVuEB5SmSErDa6l8SRkozbO3b/8FuB860c///2u/a8H1MbR+ZbvD8NVXWH7SZdjzawn3mpbj86cOALGuJvvFyrSNmXkV2Z5YIwLR/9LQJZnGk875KR3sobQsBK96cSkY77n6I8b6+v+pK7i2Hr3Z7975Tv/K++PDltD3KzvOC/J5lsSW7IetsN5WHql608KCnd8qAhs/fS3r33vX+5ia2jj3sXWhx05t4otXgmSVxWgclXE9zsd6T0yBQekBUvURWeqmKxldB2uAMlqA0HCQtyJVJfl0zPdLLX49M1VkZVeRoWImgZcPoo6mjwNvbwEinz0mcszb4VMyKtRpKWteASfEIjT/PIZ/GTIeZK8ahBbCEu+lS4Lks23sGRg6br24n2EmBZ2sszTxQ157VlkhtIuSUP+yjzxVg+mU/yLJJpYNvKItxJ/ZWsamXlJOnfarT53vOenZeL4+JatIpPoYayHEfMglcCSYWRZapAUVbwYJy87wH0f+Co1L0mvEAIwIZQm3YJH5/d/fe73r3e9OjXYmytq1geJLuBFVAwVAhQC0qAkjABPQ0aQ4CBFQYq4+UBU+oTI0aANgWvguEcLbJRC0OH4QE4uJTmUrJ2xc0Fidf5Xy0nQVBG2lLCCUkEcETNNK4TNABElrgmbqIcUQhCyeBF1rvhn2+VFAQHkGdgg8fre/u+1nv0/4tte/1z+Yh2recTKI5E8EglgL4T5VICbhTG3k+XhGEO5DBqQe2rgPGAYtvv0hbUHVnx5RBDc0kEcjr7/3bUzpn6FsC8yY5T+ll7gdLKGyazpiTee+cu3vsmmFt5jwjyAUfAjluzjxZYI0udafFfvvLLKekUU5ZKezZKRDN8KbCFkyOLnoroLUTAhRLeovbZn04m2p1JqLUQuwhGIeAGIAB/WloosBC1ZzRrxm1hBwiYxJcSrU5kBghGyGIgg6GgYGcAxgAshXTBjRW/lknColIEYgt6D5mQGHAOH18zbMrthqRGIMtVTEQ1x1HJnZQDDEKQwjBNoEcAYsFwlFlYSBnBdJaZrDuLlsQZrRLpARcgK0eScXV8vWnjwXr0CE4NgZjIbYedBFnmQ1ztyFA4vixelxpYFQ5AjFSko9iCJTyb5mlG+aeP0//r9BxL2n40DRjfRIAGxVi6rf+c7q0tif4GwOuyG6cgAiS0UUQj56ftNdZEvmihX5+U2wjnUnkwMGXkw7No79XNcMhESKwSMoMaa2nrrm7tTRVXc9xdJ38Cx+P7ATkEAACAASURBVNYgthCBiGBIDRiOs5I9Swbm4nWpYE0qb4qBEim9lirJkOYEmaXryZhS9QALoZQXz6n2aOH01PLKSS1uoAhovJw4Qla919WjL6yaVO/imA0ipUr13tbjm5L7O3IXNOjTk0oVZHodaKsONVUEGhN5pboaNkkMaRZjbpPZ3QMXF09sNZRSHcdNzU3CouTEwpZwVyWuKwiVMc0mwOLY4qEcvIO574bGJpOC3IKZ3ad+eX/7oXsqVual2r4KU7oVgeFqrWnlVwp7c8zyEI3xejAQk3ABaNn4107Pl61yE7JJNBrQk1Pb8t/53rrO2J9DbIYA1bAZS5VAanuxgkRBWUAlEhB+vT5mRXQ7omEjkihUoF5eXa9APVVUgZidp2DdcAFBe/d0nz1AIvbnfECIYpdeQMW8OJ4sKYL0IHZ++f2epPkFwOJBZuQyMpnSnI8BWz/86W9f/f6/TFYbRrNBiKpGdl1jZ+WUpqratlRRNaSeAs1MnM8NAhHzukgQmVwgQkGIIoGt0mTNmkXbTz7y5JHmi+vm7pxX2UdAdO+qs/nmVFV1cwDdvfFE033zJlE8Z03fpa5vblqwe+/6E9f6XipBtTpwK2L1x5de2tt1Ys30rafWXNeBFzWL1vRsO7/42Wuzvrm3+fT22fsLjSleJLm+Z9fW2fsHVl3pa9gYDRQYMGJp3q7F+/cvvbShe//ZLc83GLON3GRjRefZNdcuLXp2c8/Oc5uvL/JWKxgbWphqjunEqBmWK1EM0Iq6niVbTy4685P23S/3bDufrJ8Z8CqauufOOvF249oTiw9+o3LjtXvtuokoUtM5f+G59+tX9fftf7pg7fkcnMwlbpCam75Wfe1Scbn5ZaAAYnjRZNEjW3YsWbGmq3fOw2s3dvXOhtTqnDartXM6YjZidlfvnJaOadQMz1+8cunKNavWbV7Wt27Bkr55i5Yj5uSFQirW2lrdd19bXJX4TAZbpgQrMdzBoCbkBQn6799tiRifURl/kwCBQQJCmLvvZS688zvcf+vl7/3fL3/vnx4KjeG/ZRWUTGnpmAmpVzmlLVlQo2FP4Sm4biRfTzRFyJcOkSQGeXwFJcDWQfSxJUemKUuoFve0MgIi+1ddKuDQiSnE3rXu5MxJa5AZXbLqkUNFV61QEpPw2TXPNcdmOSB/7/ojG2N7ih+og9CMgBKdhE0ct0LJrdP3Lk6sTU2stLWEqcUIdSylkIWSG2fuWde4IzWxnEC3q2H6yZlX3FABVKIz6x4+Pf/pRE55XWnblY0vVN3bZufG57UvvzzzeRUxXYtQ6MVTJZbHS34CbDENEWyHjNS8I69NLp9/HysKAPshLbz2yJPa9EM5erEWru4ZeBM0rwGFrVsGnp+QXDORxOxkw4Jz733VbVdJTNOt82cbD+z4kml9SQsRrDuRROHDazeabhTrbkVN/YIlfZDabV3Te2ctEH4AVkNLZ+e02Ro2Fy59uLy6ob65a96iFXY4tXL1I4i5CjUUjEsK9Z98d1dT8jPS/gxEIJVY9Y+KQhO8O/KL69YuUf7h9bhn/BlglBc8wwQgDJDOIxWG0J1DmIzZ37z3mf4L7z2o1CmiVtSNdnlmxXpnLq6saQmLTOAV1W2GU6DxEllpkeGvAg19Ud03jvs7EBmYWFtX7mmnS4RvZ5Lh+N41l4sDtY4Wh9h7bN2JlsnzEY2tW//YutjjiNmabu9Zfa4pucRDVScPXar/Qk8kVKIRHWIbYxsjBwJrzfwt00sWGEoYUl2HHsY2ARGAnUfm71rfsjP5UA1Ezoa1j25JHTIRUBFzcfnzq98oy62dUtJ8ctNT4QfLASD1HW3X577EgIeBA6CFmSut8whbFBs6ZnnUnXHsW5MqZj3EUsLfNbHiwg++GJ+OMA2G1EWHX4zP2uE1r1ix96kJzjyAWEiJLtn/9VDjJgDiAaA/e7np4KbPBt3PQZwPqRlLFT28dgNXE6iVKChbufoRDRttXdO7p8+RzxXYmoOZt6xvQzy/vKq2pWfGAsNJrFq3FfJ4u3AQe7Go84t3TvYUf0ZOvUXfWbrNk4b6Ju51Gx/7Ly+nfnIx19E/AykEfJCbGFpQeJdkzdk/TDqP4aBM+8tf/MbPdvS/HrI6Zb3qG7FFjEgivzJVVFNcNrWpdXZ900xEEyJK0ceWn+9UWg3G2gJqbOnb004XCo97j+L4nvVnlqYe0YNRAmOHVl3qeXAFEdja5h4Nalhl5p5VZ1sSS3Sl8MD+49MfWlKaOzXEeAFVXkmVoACGq+dvml/QFw0UU2IjYvHSeSCiIXP9gsfWtDyamFgNsDNzxtKdDQMxJW4o8VSq+umVr+Y/WDmlpPnExifT2Opsuz73ZQY8Aj2EHIQdxLgHNsIWwQbFLEDdOcdezRHYQsgJAm/N6VcmVS9T9Bhy8pcce4V0PjqpbOGSI89P8JboxDaAt+3kS58tXmEyoiCyf2fZ5SMBaH8G4IjEVt+a9aIerGmHEytWbQDEauuavmDJSumd29DS2dXLsbW8b0M0WTIUWy4iXojYVXUl772xtzXxZz5ExHKCTI3G104gdRGpiKPoL98pi9pfhBgIxTeNLTHH8jvrDmNLw8aEay///Y7+13Npy2jYEqtp3MajQrtqSmdBcUNQdQDxsvjWuLDFZ2oAq4ht7ttdG+j1sbWyafMTs77XV7lz3/yzl/q+UffQdA1YGzftWh1/lF9C9W1Lj7QmF1tqUXNT56W1T6+p2drdMXPn3INVRoOnJl01PGfqopMbn5qWXDK9ekkqUs3RgDyN6usXb3+4fWt4cjHENjTs/kfO7a9+YkbRsssLnp8fWRdXyhqrOn2+VdfWcmXWNyTfgtCWNjOpbwnXCULt5Lz9L4HyGTkkCTl7Mxeu2th04m9TszZ2bj057cIHD4WboBWfsXbHlP4fRmftnf3ombr97+WQmoASDxB93uL4t16YXuL8uYZNajpuNLmsbw1iVgjQcLxg8fLVGjZiqZL1m7b3zJg7c+7ixctXN7R0a9heunJdNFFSXdfa0TPHcOIrVm0ExNHNsG66fYvLX7lSFs/ClugUqaukEaaDApV4P/zJnDj5S0wQQhRn+NbHgq0jr+ex1lGxldGrALFtryAcK1eAM1QmjhdbsnRvU0XPlLyeoMoAcTCJRmjhgtqtC2q2To1Oq4m1RkPlEDl1UzvrvW6kWwGAGwrnlpnTjLwiE0WmFnQsrV2zsH5lV2q6qyQItDRCEXV6Ghcvb9y2snpHGWwFwlVLpay2uLU+2hnOLeS6BSExq3hpw4G1VbtnhhfqMA6JlfLKZ5X3RSdWaZCGU6l14ccIdBCXF4P2WG5rJWJwIyvStS03XB8kUYjDlu4BNeTW9ySWH3Ln73ooVpVnCvOYESubtjK58mBpx1Zst4W1CERhBYbjqdSrLx/YvSoXGZNCABPDKSqvAoQ7pRHDK6+eyhMRMKe0sq6lY1p1XZMbTZVW1mrYqJzSaDjRcLwwUVCKmD2lvjWo0RxqFCWL339h/drOz01yFZ9vyQEvtibAlhhmKRPn/vy93og+QccQI4qAhYH7UctEzree/97/deTy+2NiKy1NxdTD19/TB7PWdH2j9nDp609G/MmLnHsCHmjPC2APuowSGxMXIgsTFxOXMEfBBhYuo4TYaIhzaZjwEgrS3dSC1PRJYkshFPDIbG76l9jK6gCOFYAZ5F3Lq1nzGriIAshtHLKQcWb1Ol0sk3vmiAJsCrEV4kBiM2YFNRoCTC5UcBWHOYDx90GMy1ONl0AXgpW50AiFDL2gpvz9H27a1HyPqKvNy2Znk3yTEGDZpGEjBJgCOWUfn6g5P/hG4cWdf+2Az1I0yf80oSpkFhW4NLcQjgFU9sr5de9cdDYtiZdHHzS0EAIJBZZ95HzrrQ9+++qP/i1nDJnIpxK+VM5ePeAYul1sceuRvHYQWNSGAlsIOxxbwh15CPKGYEumH5e4HI4tqY1JN8ahL5/9IUP2/arYfD1gpEqzYmCk/SLlrAXyKHCL6zTMk2sV8lskpIZuQUhnkw3XKYiWJKFc6ZIvecN2MAbkhr/S8oFXdGdqZ1u+Y3w1RHIp8vxvHHYJIgbAEZUyg4U8ixUm8k3i6Jqrax6GJhqizn8E+tZbH/z25bf/JWi0jy4T7xi2fAYmdkbDlo05wmyJLZ8bjbmTrhCeqRPOAGFyH1JduHxJv9Nh27RTl+wPJCSIRNiI2Mq8M+9gH1sCQBxYgtKMaiiqHI3ZKjOCTJ/M2ESdBtjkoPAnG4aDzM9xYUvhBioYIDiXIJQ2U8mhws0K8lYaMVQ+40GIGJjiSTrWKAGEImKKFTluWvFBKb5oVIEztONufppcr5vw9ge/femtX+XpbX8Q2JKhE1nbMSHly0FDTOYNyHTIdBEBxuS+wBaTTqcjbXl/3EFsDeHBGS4LqKNSK0jsALHl4lUo46vIn470bJKqUmY7zP6UHuSAuzdChTvimhClR0gGJVmMgBgqNVRKMDZtSIOUYeQiFFZxJA97k9Kjzmfed5hv8byBb33w2xff/OfcsXT5rNfNeBP4QB6/TJQmQf/CDBsYzr0Q5XqVT+PDlg8yHVKJLb4jSA4yvwVv3EmP8pvxLdnN/qxFsAdmAWZrjMtESPn6vWgN6e0t2Q/3HAHEVgl3w1eQDaEBoatwH1dOgNuWeV4xn4b7uKbXbYSY5vv8Kq6GI6JxUBoY8i9SB4mvvqeJ6ApnXQwh04SMR5xDD6KIwrHl5ghlNIPItFfF0N65OX8a7fx0zP5bH/zmxR/8Ux4dY5441jPGjy0FMqw7N77NCFpXZsSPyAZGOjiCvuWDMjN1GvkrMloUn1LxwNf0+m523eRsdGbEjTBnA2YC3dR0GzEXUhdyGMlUcnItkmfhz5ApV/cy9/fBZCLIl+d94s4dGQLI5jNWMW+VbkVZEMz42IjEd4pwUgoN3QoHbj6bEVfxrXDI9mdj3Dz50RFf83nr57954Qf/62PAVgh8dNjygxM5A5My7qbYEjhIJxME5NawJVUuSkxKdINahDFM+axTaC2SNcpuS3ekTHroIyNrx8TQJtAh0MHc/OFAJB1c+RYIVyIAbShAJiew8lpfI1RFBjyFsOANlMGWj+OPFVvcD+LVd/+x/9KPx7Kdjonu8fOtjwVbHGTDGKHgHP5gHdyReXjyFCyF9fj4FucWArtcT1CYEyJRRU9A3RJ63i1jCyNbYgtp1ojYAtAW2HJAxjjyx4St77z/zxe/8d9uhq3BLhm2RP2RYmsYSrjcGQcNuyqTJ2z4JyhQr65rnrNg6cy5i0oqaodhS2bPF9dK2TGoqAFiCKZod/TMSizcWTBro6KnGPYwNiHW5cReEelVpUlMwIIzD2EzMwUT4j9F8jALaGZtTWssXIiA8KPk6x+8Eqoo3MyNbYSGp/UupiymAoNAUwpHwbfSmpbwuxyZb0mR57NJn9vx7K88oiljvROC9c7KR863fvj3//Him/88pky0vGhhYUltYWldUdnUguIpcv1HqgViTXRcse23yre4nGI8LyGk3FdMOFK7spKjv1WRw4OqRV00acP0/a2pGYXUQWLJ2W81QExI0zZeFRlT6ttXr9926ty1jp452dgSJlme1tX/uiydl88rITURs6fPXli56nLz+f/xZXsqJhGNx3YThEMKMUPUcVQcgmEIMYSIEkIxQgiEMAhixwvxQQKIR0iqt3Dp+dlPV32lEQCm2F5uiIX4skdYhbahmhAagNirZz58qm11xX11TDXDqoOkUp9ldJTwGgYyPmMQMicbW9l4EvtiksEzCN9h3Wuc2LKThdWNLTPzi2rzi2rj+dWQRMXYcjUkg8nGiy3E7IxpflCRFB7f+o0aujBLWsTgiZwz2AoDHGFmMqjZkEQ1FOaDG3lBjfsxI1HNCtKwhhyeoNWIUDOapcjzJyLmMCsin6hAPajpAZXtPTAwa96ybGxpyMS6p0JTIMD3rJesS5fmXMQ8ZsUSNLD+5PfvNxoAdRkGDKkQAAw14Obn6WUGJJNxWEVGLnFy9UjAzM9lVfdYiQcsFoROEEcnEePisqdaQK+hpQJId/Uos2KQRkPA4UnOkC084WwGI/u2Ht5E5hgwMZE5BjAAN3sOmuvGjS0RoclDE1iIp+QwgsQKijnsJ4at4vL6wpJ6DfGulZSpV33L2AoBCilfLZFDSnZzQOWuxioysM5dDyC1qektWNJ35Ynnzl9+8tDRU+FYIaSeEyk6fura5WsvnD73VFEpfx/EYkePX+mZsfjM+SfPnH9y9vyVkqd2Tpt/6tz1a0+9dPr8Ew0tPZKlzZq37OzFJy5fe27vweO6HQfEUaGpQnP/oRPTZi70sWWYkXkLV5w+f/3k2av9A+eoGRav6stEji1pjofUZbq54vSP7zMaEXMUSAAiuhebd/D59jN/N//Mu1+t2vggSuXBmFc1benAtzuPvTn/yg/rTv8jWnp4shEDWJtTM2dhcm0iUIYRo9DYc+DE0eOXj5+69sjmx0+dfuLkiatQc0JBPQSMPKqfX3y4IqdK5bYMmX/lDx5b7/zi92Pbt1RkVk5pbWmf3dI+u6ltVn5xHTUTg/NkngZtPHzLVJHOrDAgZiRRFEkUZpKLcLd0FemRRJEXyw8BJrG1ePmqfYcGSivr3Gh+R88sL1Zouan+Y+enzVgSTVR29y46efZJZqUCinn6/NNrNjwaSZQ1tvRef/plasa9WMmTz75SXdeu28nSysayqkaA3eratrMXnyqtbLC8/D37j2/cslvDtsTWvoPHfWwhbM2avehA/8mSiqmpoqr+gbMz5iwaEVviqx3b8Fae/f59ZjWkMcRc3Us8sv+0Nu9EsLCttHvRgmOv/ZXZAmF0+d6nnGnbHkp2rN55DC25cq9TR0kEs/jZVZebUU84UMiTKlLjaP+ZDZv2zJn/8JkLzyRTVefOPZ2fqkbQhcjUIT217kRdsIVHNwkL1mh8y7dEjCQTM6YvfgfudxrCFg9T+Ihk4tu/+N033/7XMXR5FVmmm+9GS7Aei6cqe6YvgsTNVI/iFaPGgS1uINWwyawIYo7lxaVLp2Rd8i/TjZtuXONNzPnWvkMDs+YtBsTCuiuPlFZMPX3+CazHFJGE/MjAxeLyBqLHzl58xouVqtAOaub5y8/G8ysB8bbt2H/i9NVlKx9p75qDaFhFzqZtjy9dsYEYMaJHiRE7f/lZokcktg4eOd07ayH3w8G2Bo2duw9u27F34dI18xb27dp7dMv2PUKw6ohZKmLSciFsDSYgtmPE+05//36rkaAoJm6krHHl4Wc+U7AKGzbS3RXHXn2gagMi8aV7nzW6vvblaMf6g5fVuadVmiSILxNdffhKE+sw81IAOoiiI0dONbXNaG6fte/gKYC8/mMXKypbIHQANFQIDy3f1xrqEFDgBtLRsDUoH/k53Nru61tDFgCQoQqNXmRqGVRRZKd8+C3Xt9764DevvPvr0bHF/eIhDQc1U4F2CJg9MxYaTsx3mfWBlcWHhmuFUkGB1GZWBOuuhEumk2TpCpMYnm8+AMTaf/j49NkLM5qNA6lVXF57/NRlJ1IIiKtC+9jJy1W1bUSPnr/0jBMp0pATAtaZC09F4qWAeFiP5hdPWbl6y8DJy3v2DajI2fbogQVL1qii9oLhpM5ffhaxsMTWkYFzndPmSEdNBZqPHxjYun1fz4xF3b0Lps1cXNfYIabG/KPC8UJiutIMIdbaTWYkV5165wu4CcMIxk6ypmtF/wsTvLmqhnlKxAPfvr96s0ZjLQ/3Lzr/fuOB17r2PveV/IcxDKvIUrD25PordbjVDhYhYJsUHDh6vKGlu7F1ev/ABQ25B45dqKhuBcAGyJrI2OmVB7uV9lyuHjER6DayTByKLa7O+9jK3uGT1mF0R9V5jq03f/6bV97511wyum8gtqc2dgPiGU4qHCuaNXcpNcMhQKVWfkvYomZYOnOOBETu3O3fbeuO3cdPX9TtKLMiBSVVRWXV//9DL159tmf6fKx7dY2d5y49w+dZevT85WfdaDEgnsRWOF7qRIrmLOhjVsKNFE2p7xw4dUWFdn1Tz9kLT+UXT2FmfO/Bk7v2HtNQWiZu3Lpr+84D1IwSIxwCxqx5y06cuWo6KWrG3WixHc6X2ILUPn3+yuoNm4jpEMOWRtogja45/QPU8sgkWoTtfJVFtvRff7BjX8gp7WjrnnP6Z58323Ly8II9TzxYvepzybmftdsnWZUqTGBENcYe6d27tHRrOLfIsx0Ps8ePHm9o7m5s6e0fuKBCe9+x8+U1bQDYhGfF9p5af7pmUkUe4/Fzmkjd47OuQTzxONAMpSeSI2MrG2ejuX58GO7FsfXi9//h2sv/YyJsGG2tGhCnoKS2vWtO9/SFHd2zI4mSgEoUyG4bW1IIjvnepm5H+9Y8cu2p50+fv3Lo6EnLi4cAi+eXnTxz5cz56xevPFNa2agAnvj+7MWnY8lyDbscW+efDMdKTCe1et3XBk5ePnbi0qmz11s7ZkmbxZwFfecvPXPyzLX+YxewHlUhD8tWkWl5yVNnr544fbl/4JyM1V6wZPWV6984e/HpsxefLq2sl9hCzD578Xrf2kcgG7T+A+IUz9ox/+p/n3HmA9C+436zyoxXLB/4VsfR95qPvnvflLVBPfoAsBu2Xuk6+4umE7+Yde4XLUfeDFauB7pOMHPJlCuLn6vIrabECRDz9KGzbV1zaus7jwxcCKjGwJkrFbXNmHoWim5duHlz/sOpYDSPOKIgzSDT0jAZxJMPLDEZFKaTTw5bb//db19885/GkIkZM49DzYiGLN2OAF4BhTtMjtN/y+dG1AxLwZdlGhguQCXmILVDgCFmG04MEBPr6cgIDRtOJCUX6fJCjE8psIt1nttXAUZAZVj3IOGkIseLFhMjBoknUQhpGOtRw0khFoHcJzs9TxRXhQ0noSErqDEZ6Iv1sOHEIRFeftJKRC0nkiK6DUWRKYgZz0UIHahXaFatGa5lelSjTi4OMwSwnQroLiaaZjhhh8469PUHkr2KUYpj9au2PRqa/0KeGfEoNoLW5o7HHm/eU3J/gQidclXkUDOqAAMwFzBHZTbAzpSiphNrDnfe0xDRTGEyMMatb40qEz8OvvX23/32pTd/NabtlOdIkpkgMswmncfBd1BJOwyNLrCFxZIrVRJnN8XWGCdkkMrNH35yCjnp84eBH+UidzSefXmITV8a3OUICWpcvg8jWbcsY41LF1ETqOJxvMIiinn2ACCnKXKE+HaKtCWMt49uYd1aOvB64Yqz4Z7tJYsOtx9654HihXl6kY2QhUgIsZUzFrcbhalcC0JT4U0tbRy2Rk2FWZR4m+c90hIq1KirUSNIpD09I/iyGdVI+5kuG3kMf3T/cpk4PmxlvxlvOOk5OX5sAcLT744fW1md6j86473E/d1kB6RDWeTKYOYSPvkYRqNgi78SzwICuHwfStTP7+p/Kf9Y7lPAfe2IIMSdZNKGOtFJw7DFf/JQJcQQtavaFtQvfMytnW9YsRxaoFEP8Zm/rRBbAzrRDKQ5SNR4kwOVtxixQtRWqacAR4cipys1FO45M15gCU9/vwE/1p3bx5a/BpJpCOmNOerb3yq2RhpPEltyqVi6MqdZ0U2xJc362axLLjIOxVM2vMaLLeFy7n/1CNjiLi68Ahv3upKKj85tWQhiSyUu5klyrDxqTiamCkQwFR8Y0ktMFNzDnoLdALEm6qZKRMnIWwHWHwC23vrVmL6BftvJnSEtmGmIcWEL6+64ZeKwh0o3Yt8NYRi2uP12DL51x7GFBPdCiI0LWyIYBCEdQ04aLwkDNZG41dEUxMuz8USYtiqwxaOqZAsbPDEOciC0MTSDtwWsTxBb3H9LysSPE1tj6FIjsSsfZL7nJ1dxhEHVgVQSd8oTaejl9CLt7Sl9PqV8zGZacj2bTwmHi0KfdQ3jW/LRfAt4rmifuJQU9sls75ohY88HioZMHvPIIWUTSEQjWDqEiMfO8+OGZvMFRB6tnv5SnjEaceOWzKujYv02aMwm9dv2Du9kakWNS5fnz5Y9kWmsdAveIt9KR/p/iA9O28CksT6ztSAzMy/mr/dJX650COiHw1Z203M8+ZR56Ih4GtRKpX3c/2oRG5g2GgvAyews3MvUP0fsyPwa2U//49hPx+yPU5dXkS5tWlLJ9dv0lrAlfGY+5PJC2sSaQRUHEKQfK7b8b5eO6uLnYEiBHx8mZzyZ5uIMdUQCPJ5CBkXy7Yjn/NEdzMT5jI9vZYkPLi/89v3YsSV7aBj3+iSxhXQrE1UmuZcQnTzOjPOtu9i6iX1LzqosL+VGCkbyO5XzmpHHZfaYk7q8UClG4148+01GIeMsCnJ/EjnoZd7vtJgQcwJHRNfwABtIZZY57riHhPN7OryRL6X7poq0bUKawbL1LQ3qkkI8MamuZOlhorJG9tsOKgNyjFnhmB2OyTHGL8SW5cVqG1rcaNI31vipXIe55t1xr6ns1v4E98fJt3jEC9bDUxu7WztnT6nv7J21SLdiCs/ayL2ERR/fHFsq4kYpaV4fG1saD6vyACU84h5FeK5UwN18AYmGSDyXmg8Z5H5iBKiJSRTDMMIeMhxVNyiMa5qeZzEqYvzlFnPvBg4pYW2XOr6jIlOGqvrM2MeWgo0AT7THTZQBauYRQ2E2B4Q/8/cT/jI7VlB6euPcH/Q37J/RgDDQmB6AZrKo5trxg0dW1j2/e87DDTxXqg758l+QkBFJFa4KWTgYWXXzBYXcGQ2sw7CrjCKIsx53c45wGyePE1uGAo2S8vqKmjYFOEHVQjSqpWNRuKfNuLHFVWxi8Pr1I0aSZX2ADjFrTM4oeKgqh2ANozK3pcJudJV8RyuuLVy4qG5XT35fCZnKglEbpfKdqop4S6FZ2108c0H5tgKl1oQWRRbDFiU8RxfkqcLs6rrWipqmBUtWJQoqOnrm1DV2qoIjSnhB4Az1WgAAIABJREFUqEsKUdNOFcGqqol11ZOm1kxqqPtSUUJiS+V2y3QyaZWYk0MQ6A4jsa0LV+yflSSIEc3WUPTw8ZNLU38JDLuuaurLu+aXqJ8H3MtZkwmCb9hChWBZCUbCdxiGRvv5J4ItQJzWztmGU4D1OCCREHCEx21EQ7eJLcuL63bUd4UIapSanuHEsO5yE7lIo3143cmFeAO2woyYB+dfaopOp3mRLX2HH1t3qbl45ealh070vFikVNiB8PTy5cfmXf/6yu9uqj+2rPvhAqeZQZ7DN+zEw16S8JVdzrf2Hz55+frXt+88cPHKM0tWrLt8/Tk7nJTAssOJaDRfYkuPJNpnzl28e8+cwwfnHD649NQJ0tEisQV1y4omoOEo6VUXQyFmns76Vs3on1GEMQ1R04vErxw/VpX3WS8ZLYR/8fTRzYXagzY1AY9QHZlD8EgvnynKhDlp+9ZYDOyPB1tv/Spn9LhqxLyuafNb2meXV3Hv07bOuSHN1nD4trFlOFEvVqDAwalTCLBossh0Y4TaFBgKSs7s7NjTeh7lRuJGwVOb3ogoJQA7zCxTJodLQNuc/G3Pz/1J9KGUFbBnlK08v/7likCrHciHIMLUCBFJVsMeRwxlruRb+w5x59KKmqb9h0+YbuLoiQs1U1ukJudEkrFYAc9VDvVcQEPMeshyv+J6X46EvxKNft4UWe8JU6nuJvKdeD4yPZ7igVoasTDU162cd6I3HxIaNK1oacmhg7vLcz9z5diZJeXowu61DQmkUqZy1T5baRvE2Z8qtnjM/k1tp4DY7d1zU0VTVOio0Jkxe7nlFgqxeEt8y4DUFjLR5PmDeK7i9FBWIIPUwjq3rWvQRDy8wnac2P513yzLrdk2Y8eCwrVxpcDQzLaaGf2Lz61o3jK/ru/5JW8WB0tYCEyrmLtr5kDxxHqTFCAaMVAC8ZTuBsYmoTaApiit7ezed7Sta1bN1LbDx84g5h0/fXlKfavU/BCzKXUQ96HTmR3unr1g7tYd3Tt2dj26e8beA7i1Vfhncnc8QA1AeQZ5yGzA40oMCvG6FQsG5pQiauTqJo1HB47tr1P/rLasKk4feurYrhj8a40SjTCAdYANSULSpeE1zByaMZxK8+moW3GVdBy9yXY0fvnRHpf5Tsdh37JqG7pSRTUadoke7epdFEtWglvkWyIUjGPLd97KzP4GRzD/WlF5QMOaAuze3scPNh672vdiFW638iIOdk/tPts9cWEst6LcLH9yxbeK8oqxonVXztw180jB/bUQJfl0ASYRt4DzYEBO3N+Qy8Td+442tU6bUt/eP3AOMe/Emcu1De1yAYpnzOJkQpGgJgRZjhO5LxK/L5x4KF7wV6Yl+tuXUIPsFhArioPrF/acXFzhUAgo0nRy6OCumYmJDs6pqS1/et8yDz2gEQj46jZDRBckvSqGfvgoEvOjRcBH+dDBNZ8xfWwsSMPdvQsqp7TWN0/rmb4Y0ZiGbk0m3oitkVpNDlOikUAI4Gi85dur3z8x95WoUgVARMHWo5sOnJjx7PLOrx1fdfHCypcLcyuxanVXLto+sz86sVzDccF74n5aNvGIQWw1t/fWTG3rHziH9fDx05fqGtuHGmC5xx81HWGvYpAxQBkgVEU4Y6OS8OLYEqzXmLNgWf/amVd2rXz78OIjm5d2Tik2GaypqXj6YN+jyxtOHNpzqNe0oKZQCAhGmAp4ca+vbL41Ujv8KcBuXH4QokyBh1gEiygGaiQAjtyqTBwftmR8AdSIqmEEgZmAxfrEmKUaluaYSpwFkwVOa1nutFigLBZsSOZWRmhJOFQVUSqpGglRT+fxkjJFcdoLSprBAHGYxbMXYz1sukkitwZ3VMwiji1BOmQEMgQZBBQASlSUzsYmMCH5FveOpGa40sypMnNqzQcqrNwCkudAiPkzUEcJqlC/bGv3isogKkEYc19CSXexNcgwLemKqfIVCR7vKrR475Z0eemhmi0TRxqvIntMWixaAOo6yrcJwtyDwCbQRaqHlFSIuLzWKwvjgK1iRkgMwTCPiKIOHRqLK0Veti8XpG5Q06UpOJPSyEdh2kqXXmmghsZ0lbMuCYXhMlHOakVtYqpSCxIDE4oJhcSCLAFUJ8TCDqZB5mCeIccQ0vAutnhrDhK3A4kY0RAwFGCo0JYkqrCOy3aa6WNuO5X7o02asjUb7r7CXZatTJoNSwMGN3KKVXP/DaXeJtO58GJP2FCpNRr5OBOG35EnbjxekmdFMzWeW8sWZq3RzsxejeZTEx7Oz1MWylyVNhXpWMUnDwGu//J/wjtcJr75wW9efmusNR/feM13BMhEFIN9G9givAoNh+N4sJVpdz9HyKCT/sjzgMx4GA1YqsgrIeElsTXk04as8/huPBwlo7/tMJbmO8Tyb/Sl7acYWz//95ff+pVqdY0W55PpY8nJRE/zPAXOx4+toW8yyFmHHR8PtrL95W9EmIxmk+D48NgSbOxTybe+/9Nfv/CDfxq3b+AfAbY0wq2aklQyRD76MvEutoYNyDv+k9sgXn33H5/9zv+chJvGx7cEt+DqdrrifDbDH+39pBwU64muKP4zhpTJthZKW/agTJSmzlG26dOA0M8ALz4giLulD8LrVrBlS6fWDN8arstnPtY/zhOKQmxJkjJRo3aahOUsa3FwVKabue0f9wkAmyFi8ly6r7zzr5NJ8y1giy9fpNVbgZU0wx+tXYZia2x9a1ib+sC6yY4PGoR56VefAOIMzJeS/mk341vpjF+ZHEm+U2s6w0LWlw6q8xAbMhkOEu4hkIfoWHJCoH3KsMVDmIh1c2xJdUS0poTUkEnTeHwDP35s8cg/gbCPB1vCkYvH7/jYkrqaj+lPIbbAeLCVQdUwjpL++WnGVgiwIMCSNB5szWsCpPN4CTPEXWzdRCaKTGsRZsUkUTMCqesnqL11fWtMmZhJCpoBNA9PkFlDeXUqJJ9rCysul5IiS7YDpMkUR2SBIOmtKsMB+fpPlkwUpgeZl5vrfP4M0fcNlH6nvFh6JoBWeLSawkYqI8YG1xN5ZptEfn1Le7KoFOmWKChsEmxHY4XN7dN4OjFhbONi8dMnE8fFtyB165u7pzZ21zdNa2zpnTZzsRstFvUTnUzyrVvTt3xdLUtryWKKIkRUdC3WUIxHjABPAx4iUY2EFaLnGOBBQu6niFdEV8wANvN0I0gogwkIzKA9pO+5C4MwpXKHUsi47VckfRAOzSNhCxtBpAeRGSK2JIEt4wZs8RQVfWseefHR+v+vvfeOjuNK70S542eftZ9nPEEjSgTQ3VV1Y+XQCehu5JwBAiAyGMAM5iRKFEWKpCRSYs4ixUyKCpQoShpNsHc0kmak0Xptjb3n+K3f7r61/exJnmDZ771/n2/d7kIDaBANBg0p9Tnf6XO7uqr63u/+6rtfffcLh0f6vren9dHZlgMFgMzamobLz+88ujjxxu4lmzuLAA6qTJh58ZVc908bb8osl5kb9+evSb/TKXV5EelYCUEaQnK4tKKlobnX3ah2JGwDwm2h08BWRr9T912Ms1vhPs2dpf3xmbV5hEqY1IS6a+2OYKAoDBJd5UvXND+1pHhd2GggflNDoWioqiLWFldrByoWLK/dWSo0BBBlhKnrc6eIVBeIhjU7VlZth4tb2nsra1okpE/md2qVlFv1jXJTE2lp0WbP/ma8iBXeRjLB7BO61ShEpGDFam7qUFUEJLs0Xv+nh9dGA19ViXpk/+GRoi/rqtpQ0fzmjsXl4MuIYsCc/kZjgT5PMMo4lmyxlarN6Sh6Ue/gMiSHmfc6S3zqTBdbWDEDQNasCFYsVgg+tXuDZNOJxDUrwjPkCCi8f+P+pWQr1kIyNg4tudziDMiznMeWPLV9xbHushW7Vuw/1v96BJRi0eypXHp44eWrS955pP7g4s4VRWabBBm2iGFb0RgrOuLKLTua2PzEzpHVjzS2zFn/yBO9gwsDIBnpajiFnt8pMUNtfUMDjz3etfPJrp1P9u9+Rmxt5NiSqR4KFsqyCd3FVMLM6V6iZp5fKQlF3t0/Yvi/GbbU6yd2l86aUZ6oKoZffvnw9mKQZ0ADJSNaPYPFF0Zuvf3D3zx8ExsE3zxGZlllS0NzjwhNJrE4TV9uBYBsBgudSILjne/eENUKRhO6HSHUpEATkDnQ2f1MxxmUF4kqJVc3/5kjlEJi62oJmKVXis1LCx+/Mfyx+XAEiWp/xciZjW8Uz2rS/YUSsKhkiVAOIKqHooodgiqr0yQQzSkqGVm7CcmWiPSKmpa1G7dybLlJlwrDoaTfKctejJRZijHTdB60gjPt4EyD5dxGSMZYiYRjwVCMqjbPUIcVJ4BU1Sl86djS7rIIwaAwHjtz4JmKghkv7t29qka/9OzWGJjJNiWTtVi+kNi6mX2LRZozY2lrx4ATKfWUXO5N4ELEM3hO9jgmzRbc75R7QyT3mN34MF7Pkt2KORbrIlYMM75n4zvVvuodQ0cXJdaF/VFVUPsaFxwafmFD57ahysXXl78fD5QjCfVWDT89eKT4wVpdiQGiqYSl+A4gOYAVqJqs7lcKW4tG1rDymdQwgkWrNzwGXfdXV/wYhJoIacypkOpDC1es3Pnsomf2L9p9cPGeQ3ZHt1uEl6VyIETDWANMYrGoNRGpiq7vfWzR9uEKA5sBpFMzeOrg/vr8LzWVlIdx4MUDu6PwITSmzg/n1WSM+pwcz3pNZOoks2y5GYvH2TAZL0bftqZSPKnmcFvXpOo8w7EhYRiQ9N6+pw627X1p3Y9KhDZTiKjAOLXnbNcDiyK+6lqz4aVV30sUVGAJ91TNf2ruodg3y6kSkTBCkOWjTw+l4tgKFpW42GK+yKodWbXhUZBWnYWXPYOYJScXoFqgBmdZ0TyrsCAY+4ZsEKi5blgq95Zm7qyEbWarZnjf5gXPDZeX+r8iS0SWTaLYh/YdmBf1G6Kvob7lladWOUjg2MrGWMNl+efgc1rYYhjqn7toHCY8VKXZV2/25E2VN5AVBGQyEosBKAXDNd995N2DQ2+GhEYgRQSkP/X43ucXvr6md8eBkZNnVt0o8VVTyeipWrxt7t7QrBhRQxABgFiJh4nYcopKFjK5xbClOdEV6x6R6KirguezQDUbYh1jlRJVpZpKNYoVDiwe4sFLp7h6obpr975vPzd89fG5F5965OSuRzqry1WklpZUXt3/2I6ROcee2/tMb0gjupQqX+XB63OAnpsPYdrY4iJnHJ7Sv978/ySsToUtro5QliuWiAgD9aGYMrNUFTSWthCaJoyF5brEzHbzoWg4UF/kq9ClkJ6XsPzFVNLVUERm+WHkdGB57lys7rVmc2wFkMIaY5xORx1QEdUIlSkhCsEKwRTLBNFxckvCGlGtAgGXBGYWSV9JgD+qEL+ckB62EEFQ1bDYnkDx/D/UpAcJsinBiMgwmVWLvVNPyaj7/YRpY8s1No6ugOmoylJuyXpwqnynqRd1ZENkUqRpIEyQhoGFpSABYRWXFgA7wAKdoyQQ8ksyQTFJsoFMkGETt1BlRmxhzWYKtRv75YcyVEzJXde8/aj0BiQapklCRGXWdqbO81pOboiH64WGiC4z71UGnXxZEWQFUFXEho8U+kHwIezIkD6s2Cj5xpMsvpfDVoZnywVQhuPZPWRMnU/D1mT34dhiPncu9pmXc1rxQbajMpr4GiIRYfcrFZk1iyDE4kjHRTqkg8ZtM5NpyrshYzfGJDJxC3aytBSc0kt5jU3sxrRSnjTf+0eSzLPKo8+/QNgCkNl3pt6r9qCTpXDyzh/bYNjiOZ7HKW1jT0vJLRZbzCeevz1wuzYzpXrkRuBwbLGlMI3GIMabad7g/86ttRNFb2qM2fudpv8Xuyo9S77nfeppWryRGlr6tZ+r9rSxdXscufPY8kDmNrLFlge19DfccSCbjt9pOiaSAs/7ixy2/m0K2+lUloXsMMewlarpxdqT0JRyi0qsSP1EymFrMpb+Do4DyFJNsTXx7al9A8d5bk06kZMgJpkNIYWt5NdMJ3tm2DFbzu6Z6T/dvJ0tN8eJK+8r71hqDc32bpmGk4zOyPjT5/kgUnxZ61s8c1oyF/LYOOMsWc9kFc+R5PL0JqIryxt+BqeNutfeBg7uyE0+g8Heyb8QkVKAs9LlWdi7AFURaW7yGS0t1aKncU/Zs/sRW1MOKndCZg6ISMnPBlvu0sDKRSPZFiB/ex91Es/6gc5hK/M0ZM3A++nysdiaJM7HTc+s+CWtua2vq3e4061Dxl0Cp8mUHLbuJ3BMc3LHDy2Jre989ItX//SfJq9DxvIWFRXXNrb2YzkcLqrs7l+QSok7/o437VAOW9Ni1/19chJb7/3k0+vv/mImmLR+IsNWor6xZRDLhbJW1N23kKisptxNUypMZE0OWxN58rk9ksLWJ5++/cGvJ499ZYo8ksMdcxZ29y3rG1wWL6kPANUNx7hJCOtEruWwNZEnn9sjSWz94JNP3/7hrx+aRN9yc7OY9U29NfXdshara+oZmLsMshiYW5BbrH5iasOHQS1Hn1cOpGHrg99MLrdUrDgDc5cpekxEDiRO3+AiJ1yciuvKEiLJzZC0/FtZXpjD333JgWyxBanV1jlUVtlih0pjxbUDc5coRsRVtrJdE71tNY6tm/og3Jes/LyKn1seV7bYch1BrZqGzrrGrpr6juLyekitVF2MrMRPDlu3PEn36YXTwRarf2HxavVuCEZyCyilPE0hbPjGHM8BntqkywqU9ylnc93OGlvJuj3JQkup8B7uVpUVRHLY+qKhLXtsJctCpXSs9FCfaWALEH3qOJ/cy+PnggPTwlb6qpfDVjo3cu0MHMhhKwNTvmiL110abxq2fvibm9hOJ/z9/S23WIgHSkeVm/9ozJFkvZYJA0+/apJ2MsfTJL9OZ71j9YWRCqAOoCaxHCf8npz52d3fjR+5lVFMp58Z7y8ixU/UGcwuf1PbqXux53fqlhdwtfvs9xO5Lj+5vpV+8wwKHEAaBQ4B9thUMOm+rxOdVD3us0KySWLlfdxJYjWRkUtUQibEEMNkH3xE9mNZxDJAqatYO1UdaEIjjbMay9qFdMRuxc53f0rv5GTtMZ33YfNhmQKkYWgECIZII9AUMYFIVQFKliNhgSdjrkrrhioDDbEs/FjCECKa6onHkM+iAZASwNliK11WpbczQCF9nLydjq2J8YnerxNtqoIb7cMYDSyWbWtMmqFxUzUZy1ilT04AyhCzODMEWaQhYzpLZu5gLFBWFo9KWEcseNWAUIMoeRW7NhVANrGRPljWW6RAqOVRLmbG9XCyr2NQAmBhHouI1CkwEVQVyabAChCEkCpiWUAhAB03omnMVendQFCV3Fz5AClukoGs5ij9DrffZlKW6FnJLRF54spLuscRllW/PfRkjKv2fp2ILSLbjUXds2ND5VYjEW8it27i/pqOLSpBDBHFDEkagDzbtE6wVFbUHBYjIqYykDGrs6dOG1tMUCkAymWVjX+ilrE8q2PC2iYD1ngJREAsAHURkjnRwUJYoothBTll5bVFvgofjogwIkHOh0mxhbFdatY2WG3hQDGCJmBzN9mDd7eOs8wGWWCLR+pZocKyWEmNHUqwpFO3sSZ6csurbZEe0+caY904Cze/zdqFW68uemd/1Zmnu47a/nhyttDoPImYRb2K49aI0fLpbL5dwSMzrEBaVdIABCJhJGDgkgSwpFHtuW3XVyYe89ECERkFVBCIxFZPlwCiTFy5NRk9uQWgwtue6gaQimGIIPPpvSdm6GugGr45tkR35XU/01DCEnDqVLbrauvfWvDdCn+jKgUh0J5Y/cyRyoshoR6BmB9rLnC9EvFJfPA6jBJSH1228+KiS88VPd3+QJtMWRHnz56yxJYqQKWxtbuuqSMYLWlu66lpaE+DV1bPhCeZ0uWWiy12uYut9HgYlnAbMQCpZzdeq/S3moGYAJUASQa4Mt02KRI0P0EBggUWEDsquliKVBeaLk8ViJVk2mYsX1j6cuWsBl0IYvcEgE0MFFUEcbmnPL/9D2nAh6mPVTtn8OXYkiCFmCk9HrAgUkXAF0oTsqw7bPJY9EEAqbK59/DFGeZSqIUBYd3go0t1mN2WF58SiOwnOkuIOjr3uggNBM3iaPVLK1+t9FdQtrrJEGpI1E9sPr9WXW5I5Q/JmiHpCOu8uGkqWJfV0g5g9hicXHamEfXihwoDogYo+OyBxWrOZSe3WOnyzp55sh72S4pqRnsHFyl62E0cmm0Ey0RsefkgeZSpmwTL5FDg0fcDnX3PDJ68vOqHT/df2DZ8tCU2ZJHE6mWPVs/sl4CDFeOpoWNs2mx9be+2TnvhtmX7di8+MWyvJyDolxRNKFo/8OS+JS/sHjqxoHK1SsKzWwd39h9+Y8n7Z9tvPN13/KnuYxFfZUmsYfWSx3csPrpj8FiNNjTLL+YhhEFsXtPGnfOOHxw+vyixOhJIQOB0tc+vtNo39Tz17OJT61t2BWdWQWRjthVmuznoWQWaADARsPYdvfqNvn1d2y417HoVdW+lxBAkpaq1e+CJ59t3v93w5CtfKVuMkOwnckX3AlI1t2V488CTF9qfvv4lqxkpmBKrp3Pxk/EnRVWQiAqQiakDqRUqrDo1b48WqPBhRQY6JAxbSDZ4lgABBQsoEoiMYcnpxZfqjA4sWUikIkW/K2xJ2ejySDY6e+Y5kZIAUIjq9A4ukvUwKxrFFvJbkVtEZZXPgcsdN5A/BKlhBotkPehyigXmV8YSc+KLz61+s02dX+d0ROVEyCx67qljNTP7JSFkhaLPr3iZ4GCBQg49cm5378kOY/6yzkcubHgjPrOBGqHHFu1+sv1gc7B/dmLemq6tJk7EnbqO4IKXNnxnnrK2zumqDXZaYiIkl1ZEmtsiA/tXnG7TRjB1AorS3bTy2JLXFtmPNpX07338+HJhQ0BRFg6vO7Tq/ILi9b1Vy45vebFPHbEKSv1Eg9SyQgnVjLihUBQD5cCRl6K7vmc3b2qav2rx8+/9id7og3bjwkcjA4/5a5c0bTjc/Ox3vyzXFlC5YeHa9mf/U+X2V9DQTrFl5TeUEqI6SHeeXr6nMa+bENGtQ2uIiJVF9kvGqS3nWmY15BEFIh1gVtTNiSQ0KwRYKXUxXwYiUVQsHxw536Z1BAM2kGhAvrexJWEtUVbX2TO3dXZfV+/8wfnLKPNpvnVdnqi2bkdcbFERJROQWKGYYoREtlJAhFT2Jq0Xnlj7anRWreYLI1HRzeDeZ46XfW0OQUVmMHpm2WvEH/EB5flNL9f4u6gUekgR928/XSG10xLn+rL3YoE6taCQCCEATF4+jYqhQ9vPRgqqCgANQBlAFYkqFXRVdB5f9WQ/ehThYAGVd468MFSyyRTK81Q8d3jhUw37g0LFysEtC0s3AmT5qbp+eMeq+PbCmfUCNpBsa1ahakYRsaBkYbHwuSM3ZsSHiaojpC7dfyO/Y3u+EoahElw9QOc8Vvfo+XnnfvKHoaECKrcs3dRx6r/NNEsEigBFkCiCEvUb2umN5xMP1yoAuiuLydzHma3L3rnu8LxZLbMo34Jj64nhFLopNnQZkm+oecWx2hcGz728+OVIoBIhh0gylPHvWm7d1HbqKg0m95EPSErv4ELXWX4afqcT18SUFpJUs1idabe0okiUAEtXpVEZio5xbO1bwfxKRYhLoiNrkb27jtc+PEhgqRmMXlhyQ/YVCpJ2esOrNb5OWWJvGMfWX25AvcWl9ZdWvxXyVZr+BBVDAahKwJSgFkDKqcdfiuXVCZIGgI6BQUWDCqYiKY+teWSh9CRBQR9W9q94ca7zSNhfO0uDza1dl9pfU0DhyNxHV8fZCaoTGe5eu7T8seDDlRqII9nkBLEuQQyAuufotRmxZZZsFshlq557+aHmdQWq3br90uxn35Hql4JI9frz7z3otPio0rFyS2LDlXw1LhAznzqzFNsvkwBV964925BXR6kCWSYmk9Vyd7G1b9WhNh/DVtKsSnSeGhMQ3Y9NPyH5MpBiodMbXq2XW3XBgkAWld8ZtgSsznj/r//tjXd/8YDYMFk9HxEpihFyCyfpxeW1nT1D4lgr9pRPxjhspa+kLsiSXqn8uIgpQhqhimqHjz5yyRFKkGQGEFEM++Sz59u/OhTLr1lav+7cojdRXoRK8ZPrrlX622TJUEX75CMX6nztSsg5/8S1oeBI5OHKcH55o9OpF9gutvDRtWd7wSI9P2IGIpoQkgWbCpajFG0a2dIrL0WS9TDIX79y66Nzni2f2V4EyveuP7I++jRG0eGBDcNFmwuAGVDU5fM2Lq7YYBUkZBRMlSHWRFaPOKxqxfuef+2PWx/7Q6s20T48eOEv/sRq8evOohPv/kFw3pfNlmDH2sEX/voPo0NfV2LV89fH1556WI0FiOGnZkC2ApQVI9q4ZMciaUQChoAtkaiIgcmUpNIzG69VPlyWR+UCooosHxPLe8h5K2HTzZaoCUQ/sepSo96vSQkAFBkL7ux4b9ZTmKmnnMpsT0CqH6sz3vnRT1/+zj88jFomx5ZaWlnf3T+/rbNvTt88KxRLB0c2f5YJW+mKWhJbHGeSm8AdEk0zIgefOG2BmATUAgwFTEaG1l3f8b1jq86taNt0aNVF7AspIHZ4y6UErZWBoknmnlX7q2CjKNLGeNehdS/sWX7swLpTGwe26QUhCWo+jHtqF5xfd23H/P37Rk4VSpWy4NCAQ4XgY2t3dhrzCbDlkGHo0SdX73tu5fMnN1zd0v1sCWjCqHD+wLr5JRt9wJQ0ffHQqkX1aw1/IcEWpAogjCQiIxzGUvDZA+fn7HtzaP/VNYff1OfvFKDjl52h7WeXHHxn4XNv1K46svTIn34l2PYANLsWr61ZsSdPjQaoEaCmyLBlYVFtb5lzsfO06SuRkCEQBRKDoPDSBY8/UbPdDMRmUeK+xo4yzWXvqAfU6ZWHPyWUAAAgAElEQVQXW/VeAxQCllsaCew9dBRb3lxMdxKzmej0c1jd1/d/8q833vvnm8Unss6xkRCW+5q9mKSelWwNJ9540m0QXj+8Xzm2vIQfhNpEtAm0BawUEOTHWMaWI8fjeTWaENJghIgmkSwFhhVkEUAoUIyAoxZYihREWKcBq5jWRsQyOT+ow6gEVR/CAtBDYmUZag36KuWCCBYtLJgqCikg6BQUA1EHigaAgaGlgaI4aLVnVSnEwTgsk4g2Mx6QWLlhAi09EDGkKFuzWEFrRoilsLQJMEVR+2Na4Y/UfVNv+iaNKoJcgJ2AXiKEm76q1v4JqcjXEt/EIYmqfkjztCIftTxsibJlQANScHz4yKriDYYYEQmTXhVFLSc3nO7wNQVE00+QyAw0k2LrxMpzw5HFZVKFErAEoAsoPQh+9Kp7B1vjYJQudcb9lOGrh55ssMUxl0QYVgKE+gkpIMjHTFlwlhywhRhgGyBss4ztl0ECIAYQAYggIAgQIpj5WPIhSEVLFh0INMDKbCsBSAuQ7EM6BOGHZJqPCZBUySUEdAQMCWoAqwAbLvH6DEFETIQ1ABUksbI8rD4jI1UFIbdSehJbkCgIsyziCOkBYkNsImxgjBAO+vhXxG9rQFbT2i1rzUCpikQTCJdbpiibJlQRMwbHry262KC1StgBenDnhj3d32iOzgoToCIEfMwqNooSl70puYXNMtR0eMHxcyvPV0r1InBESN0yaVx0jV51z2IrA4A8OTSxcQvY4jdxDYyEYyuPSrPkQL4cEJgRVVVBMjklARgDLCIkIugjQgBjEeFk2RVWfIUEEEkiFWoCUH1Iw1J8FtXysSwCNUnuBhxEOmKYMBEKMSIqI1TEUp5iRSAQEhmzyoByngwwtFxsJevNiEQNUM1PdT9VAXvvI3lyGJICxNBDJKIGiFNAowWEvSCnpRHUmGQiprsmmhJbFlgfALELhbiCIKB+HwoIRFawo4mGKcJ8GSHXBuFxNR1bCJsKissgSCVNg7osMjNvDlusPlk6iVT1EwasAHEr82BWjqCAaRsM2WPVCCpi4mKOP538BFl0nQVErAlYZpZ6qEmQCSciaUjSJKAIQA64JEB2goiY6cglz5HBTXOa1FfYbQHS2A4d273WBSZ40vvs4syt0MmP8yKdvPBsgOp+Wfe7BWBEmqwE4xXB86p4sjIORBdJspwHO5Mk8xcz6DNys/piF/cc/WMTP3O7v6tjsUR5blLWe1rfmp6gGie6vAmYck30zuSN9PuMyxo/NhnzZNkGky4bItJYQCXUINCwSxBoElAFoAZcYtsM0D0nabfLdrzpVULGdd77KhKdASuFrYALr/RfOcJ4hVivADsgusBkoeonih+z0ld8LyWFfh2lwSudUWmauwcpr/EFXhO53cuJJHLYEqkeoIqfyj5mdGB7RAIhbhZqLkonlVv3HLZm0fbJbBDuM5Hus5Xezkqp957RLOXWXcUWBEx6TUtupe18j5dn2cstH1ELiOpniNFFmtTSuC5/E7nlpzIjtyCDnygFTJjxTXQlqQ66y+JYuTW+k2m/3kRuaWztzm4TL+2Gk/7XOBsES4/OKWV5595ahluJ08r0aWbzujEtbEFqTIYtVmgzM6WnP+XmQfcBYK5/jERkiMwpSpfAKAlADwCNkwBYddlUIgIeLz5qZgTYQNQiisOqc1Aj3UXRG9pNGiKkLEk9tCB0CLQEpmzJIkmSxGxjLtSoBqjmVRaC7G1Uc98iNQFrzDFQ1r4BWPk+CdmsNnZK2UJj9S13RkY7P+6r18+xE6dJMgEaDiiKj1VGTtcxmL1jLE2Kp3TMjcNWulqaeqdNlta1U4GvyYaEWSisizY9/Y4Z2954spFbk2Er450zHUwTqwxYZjqJ0ODkAksPMHgxGoetNF9Idjf2FelItg0nhlj1slHW86Gl5mlUKnhDRrIpYG2WUviwXpGnVefTRIDIIiUpotzrBhCVm/gR0TE1eNFr4FarZ+KEbVerAdl4QLYCKCZiCrDCDBmYSa+JJRRSu71JVjB1M+Xd6XUs1WcGFObnI6tIL3kQBB+mppA2QLd7o8BIvyoT80dhlwFbvLAKVYOIWlzgS+ypdSB1dDuO5GASUshMibE7jC23TmcGfesmIxHcKgwBQN3FaxRbfknlwOIPhoRMEZkiNDxIecCCxE6fAIG5iBk8xSvL8grU5w4cP3Li7AvnXyour03DFnPP4joi7543c2kNjRjhtQcujhy+PrTj0le0RoFgDixJJj6IRKakKx62MDGYLY3oEDGkSlRndYeIKUG1urlz+2vf98MEwBAS5pcGuV+/6+vmesLxZcdAspVKYpXiBmIlkdxtolGgcP8c9wVZFYm5ddfZFU9f+LpWHBj1kGMvAWljyTYDiISZApBul2f/SjWnqq550dI1dU2drN4JcTOdUqe9a15X74Ke/kV2qFTCFiSsoDCrT85erEbRmrHtdY7HvqZj30UDE7neObeALf6nWDFdNjH365QLUFJocVnllzS/pHGcefASmB3cccUwHwubDCHpQWTwhdInykQNEtU5cfpSRU2jhBXXMi6LzOStpL/ZeaPgjWSta2p8VS3R2lfPe/rVLymdkCCGLaaYIyAz4xO3PzGjF9Uw0THRJaiIQJaQyt4xoSJCDSDz9ItvK0t3+RFzbERYxVSDWKWKKTJPf2anCACGgwBQATG9cvGQup4UKVdhEal8h1vCuk8kAWb9UgBSH3wokCfYW89/r/2J50Va5LryyhJilDQXJ5+irDTszNhCMis5GY1XVNS0INnmvaxt6CwpbxWhplvFs7uGmbGYsILCqeyB2WJLNUPjnnI3nyozMnnbrh620iGYEbJpB7Wqupbq+hZAuM7EfDR0q7C1Y0DWIlx0yXrUCpVgOVjf3B0vrcdyUEImXxkbW3ub2/qoFkp71o2qurbSykY3zRjzoHLXFOPk6UuVtc18IrlbKVGcxtY5RcXVLq+SO8cewjjsiB70I7O6Zf7aHZe/JPepkIqUMG1JU8xItKK2XtZtJh6oJlGLyGZ1bXNtfWu8uDJUWMJqp1HDLyovnLna8PiJvGDdLMp6HoyUqEZYNUPd/fOdSNzlFXtEWRXt9t6W2X2ulGJywQzGSisb46W1ihFpaO4SoEbUIKQWVuz2rn73WtXPDLwFASKbpY1Hbnz8e2abnxWP4fW5VWalY1KGS+jbwBZ3Mo6X1tY1dvA1Ecl2d98CwynDigVJqKd/OZLDErMd8wdiCmDxG/KeGU6hABVZDxpO1Cdid/1lT1ueH8h6ECusmKqHLUgNWQ+qZmjca5qsB70aCAFAewcXnDp7ad2mxzdsfuLY82dNphLZ+w49f+DwqTXrt546c3XRsvX5fhovrT/5wov7D53e9OjOcxevLVuxSURmUXHtydNXVqx+dMnIxkNHz8aK67AcjMaqDh87t3X7s1ue2H3k+PlgtJyhE7NXmZOnr1TWtvJuU83p6B489vz5Neu37Dt48sSpi1Yw5qFqXAMCWtWycMmu176ktAs4ZIBA3E4s2nOhde9fxNdc6j3+5/qik1+TK0ViPrHtYHTz9+PzDy1+5dPiLd8qKJkLtbBj28eufV9sWytSWWIFRJUndjy798CJZ/cf37bzuQtXXouX1mLFaW7rOXvh5WUrNu185tDh4+epGpb16KkzV5/dd+LMhVcPHTt36NiZgXlLATGHFiy78vKNpSs2HH/+wvZdz0lQE7Hjh4YfGvuvfCe0+EA+LoJIJYiFRU2I6Jx6xjPLLb48pWMLK87QguWqXjanbzBe0tzUukAzS9yVxchStHiMppojQEW3o7od5euFK3tY2norVKQYIaJa3J2SbX3IJj8zTT6xXXPDiboKNRuhrAcPHDnZ3tWfVBM1R0R6dX37sZPnFSMCiVXXNOf5M1cBscuqWk6cuqxbMUSdOb3Dh4+dk7BVXt16/NTlmvoOJt5SbydP7tq/ZPkGJAexEtq+a//yVZslxDZhJGwdP3W5oqaFr7kSNg4fO9M/dxlWQpA6z+470TK73xupK57TFnooV7UsXPr0619SZguoEBCtqbyz+blvz1Ka8pSyorYli5556feMLoTNVfu//R+1bkxCi8//n/6alQ/iIgnr1Co6+PZPvlIyhFQNq8aS5evOXXnt/NXrl15+88KLb1y4+sbpc1fPX7529uIrF198/fJLb56//PrZi9fOXrx26cU3Lr/05sUX37hw5fqlqzcuXrl++eqNSy++ceWlN89dvHbhyrULV1678vKNQ0dOUzkMJKaJLtl6cGD/tx8ixRDpKiTMvWcqnSfjCRn0Lc6dcdganLcUkqJIrBjL0baOxapZnHpDzEpCehwnqs0zJRGVVf71iOt5HFgetiA1VDOMlTFnukUxbfcg+2sBKmcuXHXFmOYTiV+iSLZnzxk8cuIc1UKIOpoVO3PhVUDs0srmI8fPc4gUJmpOnLosYUuAxvKVjxw4cubsxWubHt0ZjJQBbD27/+TsrrkiMv2SNjB32a7dhzm2ALGPnLhQXt3MrfyAGGcuvHz05MUjJy4cP3X51Jmr3f3DHFIBQJFsAsLKWvOxI6jUti9d9sz137d7AjBaQIJdTcM1+z6guMhGxLHCm4+8/iVrMcTaij0vKkP75O4nhy/+LYx3iOyVQkZO8bk/+5svFw8KmBDVAMTc/MTTi0Y2iMSCSnDzE7vnDY9Aatrh4u27ntt74Plduw+fOH2lZfYAkoMXLr+O5ODeg6cSZQ1D80d2PH2wobn7wuXXj5y4cPjYmcPHzhw/daGquhkiBwJTgMbQht1Dh753J7Hl2k5H3yBcbHWl7A5W78DCcGG9yzinq2cZViIii2/J9q3Bwxa3QaTCyMZgy6vq662J/KpMopGbW9jlAlROnb1UXd/iospUjJCEjfrmrqMnzmlmlLWbup4/fYXIwbLyxmPHzyNsQ2TF4jUnT10G2GJxNXJQwhbVIlu27dl38FSej+zZe3xw3nIJmQGg73jqwMq1Wzy5deLU5dQrjuET5aMnzrXMHhCgISKTqmGJhWYYfolp1nP65ul21PNHwliNVw+s2HPjS8YcKMcFqMyuHZx98M9maW0EG8UNfUsOf/dLwWVQDi45cL1125W5W0/MKpqdpyYKsCUQwwzFr9z4s5lVC0VKRebTbG3emo6tZzi2nnxq39zhERFqih7es+9Yy+w+JNsXLl+D1Np78GSirG5owbIdT+8PF5VfevF11Yy4r8M6q0rBvFsd4IrnRw9ciq86PosUQcRcpZmPa5oUyL7NYvbT/LcYtuxwLFFWW9/UNTB3pLquszBRJyHG+u6+JWVVTbO75rZ3LnCF1q1jKw00SaOcBz6+FHq2Uy4GPEWVD4xvKvM21ewlI2vPXXpl3aYnVqzedP7ytaLiStUMnT535ejJMyvXbjp38eXHtz6tauGSsrojR88gzKK+LCd26oXLAGrz5o8cPnpmxcpNg3OXHDl25rHHdylqqLK6+dSZFzc/vuuRLTtOvnA5UVYnsRd4pl9u2/HsgSOnlq3c2N41iBV7YO6SM+dfWrpiw+D8ZYeOnYnGy3mHG1o6z19+ed7CZSlHbaNA0oKJhm0n3ow98nrR+pf/2B6GavHm3Wd6dnwrseLs0hMf1q8+8YBSL8ixkWPfMjdew6sv5w8d+lps7ky7/ps4GFCsCy++Fho+FkCanwYhdrZs371w+VoRG0R1Nm99auHSNUg2H9/+9LHnz81fvOLIqXNnL7/c1T8Pa875K69K1Nh7+ER5bdPg8LInn9krEX1weNmRU+dG1m4aXrbqmX1HqBoUcSgfWNiInv/Wj/83vd+HLXc/nsKUgSN7VLk7+iqL2R+HLc2KhIvKQ9FyO1wejdXoVkKEbO1wwmXxkjonUoKVoIRNJFu3LLfSkTSxPU5ueSd4AiwdW653tVZcVts/d3Fnz7zCeKVbFUajut3c3tU7uKC+aTZEBkS6bkZr69o5tjCxmprnsDBGoFZUNrW19w0OLampbaMyc32WoFYYr5jTN6+rd25RcSX/339fAX0itUKx3oHh3sHhWEmVGwancifvju7BuqbZ3MICqYEVq3dw2A7HXFdK9pIlIZXKVrSsqXTo8XD7ap9VI4hBzSit6lhe1/9IuG44jxZLJBoMlbUfeDfUtykyb2vZ8j0LT73vr1s+Sy+fJZCiyrqjNz7Jqxz0U1UgoeLKxlCswicpgJjF5fXReLmENVkPNrd3dw3MjZVXFZZUOEUJP6R1rR1QNaqb2sxwUbAoUVbbIBBFpGpRWWXv3OG2OX1FpRVAMXwk6Ff04e17Vx2//lWjNuAGafIA3Wmhip/MQjgnYovZkVnIJYuOco1bNsBWgSALUGdO2UxC6gKzoHC5lZXA9PDh2eW9IxMb08SWImHNfS1gooUojsiiLjVIVRHJkOoAaQFRdn0HDEJtF1s6RIbrp2Vg5vdnSkBD2MTEYoGs0G0z2yO3NLJP/n4TALIAFY5dfsT9yqwnIlLdTy/SlcWYuD1xr8UGs0ZSW6KOH9siCQrEEbATQBaiQYQZSciWlejwwrXFm68+EJvzVbtuVvnc/sPfza9aNJMUSVjLl43htdtWnf3ug6oDZEuiFmATZEBqEtXhGoWIVGbNUXRJ1iRZE4gCZE2kKlTYDqYkaz5I+E9Yt5BmMlINP6JA0X1A6R5Zs+vlb38z3jqT2ALbGk/SrWGLxScyufUD7tOcbsPg4b/MXuxO/5gtIG5TvQUbxN3BFtfbkgbolMGCe5Uo3NFq1OkPmyws2wUQl2GuVDO4bEu5rxhM0ozdRHMRNhqV5D0S6VZfbm1JyTn21PHTRGL6kJWHQwXYIRKEUPZDOw+reVgNQBsAHQIdQDPfryh6oveJ5+cf/e6qk+/MeeZVbc76r5G4jzgAa/ms5roRn7PwK3oxZZNiAsqy/PO/8KyDkOoSs5ONISiP+SpR1TsBsJ9UIOt+vxBt6fXH676BLQHJAtsdT9JtYuuXrr/8qC7v9tjbq09qG1znSP90baejKvlknfBmIkts2eG4d4nXyLgmpv1janMjqXiOwVbSm9T1KQUsy4jGJdlYSHGvQPbpZXlI3X/UmuD1Z1oNiGQBaQGkapJfgoqPWfZTBFVmXhKphjUNqQ+qwW8g64/kkgfksEBtqptQphILrbOppAWQlieHKQ5BwiRrJtK80KPpNAxFdvzEzmedobLk+XvxxtRTnGJU8kyeLWzGB//1/3nj3V/OhM0B6mFr4gM6Rm558Lob2OIx1hNn7pawlWRN+t1S90m+RoxjyiRfbxdbAlb9SPMhPeBCKh8rKa9rWUCKyHZ1UlDzMMcabEdIQMRNeMHVD+aZAmlGYGmYMoJUnw6qklgkhLlduFsO6T7Qt4ett97/v6++83cPslpRHrYmFVQuqkZPS83TFLj2pjYbucXNWt4lXsP7r3RdPg0KGeXWZNhKYsW7Z9p9Mo7lDmArgFgJ54nEsDUpsa3GlLc77xgzbmXCVhJYKWxlFGlTHOTcmIS9Gdky6cGk3PrBJ5/e+MEvC+jsLLA1iio+5VnOjYePbLDlxlgnTY7ehSljBBvMJIO/s9jioPQ+FZDmzZcWSeGpDbwxKQQFrE5EFT9ye9hKiigusdLk1hQwyrSYJndZJmHvpDDK+FiOYuuNH/wyT84GW+On/M5jC+vMJ44Zk2zvBc2dy1F76SSDv8vY4u57U3x+Rthy+ePtizNYp/sJupH+46VA+lM6eZuviUyOZkRM9gchYsEyLG9gSm55TyF/nw+5tTAs7xNRBzPPiNEQqCz/zBuMJ7cmAaXiOnWos4gKJJvpvDLKpz4AAWG+SslHZxJsjXuw0j1RvZ+y2qFyB5V+OW9nf633d6MN5i476cJ3kzUx+ZPrMTZ6N4+fnp/whMatYOsOrokSj9mfDFuIOqk9n6SvKSS26zB417Dl5iCFrpNnTfu8R6Nb+pQhQ4yKWCZIoW6O2izRnDvtd84Btlc9EVt2OB4vrS2vbuWuARxhVqikpr6zMFF1F+UWw5YOkIWwpCcqh4NLTy29mJhVJQGCkUxy2EpJ7t85brLpwHhsSVjGitHRPTind3590xyOKglbRAk1tPR0dM8vr265TWx58tzrX/rqLiJdQBYkefkUCVjbNHdHU147FSlAWLptJcD7x1zjM+DAeGwBohKVOeiVVTXVNnZ62PKJKqROZU1HfVOPq0gmNbMsu+jhiSciG8225cLF058Ay4ygF7AwebWACg/JYNvI081f7pUDjoShiOEkWtqoIpJlf3KnfQYcyIAtN3JSjZXUVNd3jNO3Kmu6quo6001cWU62hy3uRKoYQdUMS5htfqWApZnBIuYwSPhOnym6O30b5z83KAxSMSRgU0rtb/C7fQbcyf3F7XBgGtgSkVlV21NV2+O61yUN99PFlmIwf3msWJQ5iCp+iUXm8N1lzYqwXzHbKvaosbT3O/M/ON11yXmwBMOgh1G+u3c7I89de7c5kAFbbqYyPRgtqapt5/E83FXcL2lllZ1VtT0slI+tZcyWM11syXrQs9p5VtB/9x31iUSAbhJvVsFG49t8AOmbe55dgxco2MZUIcld8+Tb9d1mTe7+t8mBJLZStlOmRVHd0qxIJFbR3NarGIWyFgHM9OAoRmF1XXdtQ6/hJATI/FhuAVuefcuTQO4AkiY71naxxYJqWPYiffvCHVUPJ2ygG9iRcU5u3U+aZQa5VVpZ2zc0PDBv6cC85b0Di8urWmQ92t2/qLt/0eD8kcH5IwPzlsq6MzHS8CYw95A0DlvplyTfFllJC13AhkjNb2J1w4JH2h8qN0AxphHIjPWjJsH0a3Pte5ADGbDlxvgyH2peoFpEzD8/FSBq8tAxV26xaZ7umngTbHHuuImQdD/WwzTUEay8MP9y9JulFIYJsQj2djn4X99PD/E9OPd3u0sZsAWYx6brekYsDiwJW1gJCSxPH3PwuJ33xCmxJWDVxzyA9Tl1nUvahhbGlqowKkOVYG3cNtndZk3u/rfJgUzYSqrMJpdbY80QnheXp1BntcvmrWVTYivA8ghoEGoUMPc9lSV0IBqQEdJFloY0tybeN9L6nsOW6O6f+12lngLNZulBHFkKQ2ADZMAxfsb3DZdvUwDcp5ffc9hy3dvdvHij5TCTrsa/kzqA9+m83gvdvvewxcsd8vpySXjlsHVfSugctu7LabsXxNKUfUhiK912mhY0xjIDjiVPl082biEWw9PrJ9m3GS0BnKqFmZNb9+UDwGL2J/pvudNvUjU0FlgskUtBQE4/mMo4ks3gmVMyUZOeylOiPnfCfc2BKXyasZt+Mh1JWAnxvUXPZ3Ca2FInJKXJBpS5c+4/DiRj9t987x8uv/1/zWQxZEmvrGC0uKSioaKmzUtJpZpFZVUtbR2DVbXtshZh7s6pbFVZLos8H1oOW/e1NMq+88k4n/f/6l9f/08/mwmaAiz5jowVvaGls62jv7456XcKqdMye6AoUUO1SE1DZ2f3fL4F5Io0ljMiu7/URKTksJUdr+4/QTVuXCls/TWrcefGJzK5ldHv1EvPHCmq7OlfxL9CFqyRw9Z9j4NxsLgjXzNj6yZ+pzyzY0f3fJ7/M4etOzINn8ubTBtb4aLKzu75WA4SNczcBnNy674KvPksQZwZW25wuh4qLK10/U6Bm59YgEa4qLKrZ4HhJDiqctj6LKfqvvuvMdhyY/aZvqUYtuEUFiaqWtr7NLNINYuQHHQiZYPzlocLK3QrplmxgKRBt1LGtPStnH3rvoPILXc4ad96f6wuX1JR3TMwv29ocd/Qkp7+RfGSOkjtOX0LmCfq3CX9c5fM6Zvv5lFhVT14brEpe5Cyxedsp18gxd/NpTsWW2l+p8zDBRIbUsctYcJSUYpuVlkRMcfU6WOLFXRJJWnOyvFrStTmTrhnOcD2E8fJLVbRL83vVISswN2/p5JO1R1h6WJc11O+pcjTgU7xOKbkVg5bUzDqngXKLXQsM7b4fiJwfZpTdbwYknjlNA9YObl1Cxz/4lwyBbY4sNzM/eM9IHj2umnqWzm5lZNbLFSL+cvnsPXFETN3fKQ5ufUFEiR3HD03v2EOWzls3S0OjGLLs52m+Z0yG8REXT4VosiyBd99fcutAIBYLH/qKeGpsPknK3nH8kpgVUjFbgjuPoybPj79KnY5NxazClNYE3iR5tymzV3jwCi2PD8IQFS3WJwCqc1qdLllKfnOjwc1r+Zblr6BXgQ2zzXimST48fSvrEIkjvup6dNJgVQuYF2HPgSp699MJYz82H6QVRc3HyJx9t7Kqp3rAaz5WJFSN3EXYVlcCbQ1ycRQVImB/SEZm3lY1JSSGIgFpLgfBQMoKCIry7jwFKw9fOcaU3MgA7a47VTWw2xvB+i8fni+nxI1bIdL7XDpv5fkE6HB/VGnhS0RsYqvPI+Nh6f0miWsiiLSHcnEyFzw+EGr7wUBGw+TKEtAgrUAdmbhaAA5Esst6CiQAKQKyJKQEcBaAVEoJBSSWUQTMUHQtgBsRhWvLrk24BuZKWIVlIwsX3+w5ZlCf8SHgwXY8mNDcMVeDjp3gwMZsEU1q7t/3vxFKxtaupnhFJkAW3WNXc3t/eXVra0dg40tPaJbP5zXuXSNXlOgmMunjNjyQMYbGOsq1AWiL9uyz1hygQDyVSlRACMSCYsk6Ee2SCJ+EhFplJVbAmyrQAA61kIFWAtAQ0DmQwyFsi6ZCoRnh4+utddFfbUBRUaijWhw+5KdG+31smQhqEDEqv3cDbbm7pmqKTx2zwdSLQDkSKyisaWHL4IiNLinvIhM3Y739C+GxHGTjlgSNrNZVrLGlgGwCbFVQJ3Vjx2MbH6za/HOlnVn7YbVAi3GyDRCxfHeDS2Pnpm9arevYnE+ChGsJsqbSlqGaGVP2aI9DauPBIqbRWTLQG+paDrcvbf0wfIA1vyESTIB64nSmhfnvhINhBVJQ1AFOWx9lq1z1ZwAAA/SSURBVPoWknWi2sXldU2tvbwyqggNv6gB4hA10tjSV9/UJwCW0IanHsnmGU3pW6zAH5JNorKiwG5hOpbEi6+SWLGQzKLWRBwsoNF1W19oPfG3Sv/+2OLT6899ohR1ImwvWf941foTD3Q+U/fI6ZZ9H87Sy23Dbp6zcNFTF+Ye/Z45clFedOqroVYIQn5sbFuwfVF42M4L5VPoxyoEEZHSfy9/d3nTq5ViuSoGAdvOym1r3i3JnWFN5O+JsZKa+qY5rtyyJGSL0Cktnz2nZ1nvwGpFTwSACantroZGNthyz2Ew4vqWYoQMJ+pWGGQFBzm2dDsq604AKgLV/dRcsvFZZf6Zr8ks70j3rnNG77aCYIeEbSSHE2VNdXNGhk/9+I/0BmQV1gysXnnqB7+n9wX04gC1RWgFsOAn+rGRC/2ou3BWSHRrtUEsC0R5AOPjC4+2+tpDgkUgy36Ydf/v1hx8XjuQwlayng+LxeC6fBq2DBExWFDNopplhRLdfcsUIwGSq2H2c8MqaPKMcIoRxIopQFmAckqkqUS1kGz6gRygeoCaI1sOBFe9oikJAUXn77gc6nv8a3JNx+Bjaw6+Ky99Q27etvjMn38j0oHMaM3A6rYtF37fnpuPIgGgB4ApYqmA6OcWnZinzwsWFLmD4pV5FD9CZ9Ze7sxvNkQL4NutLPJ5hcUdGRfD1vV3/+6l7/zDg1Ijj/NBsiZAxQzGaxs63dIYloi0koo6JOtI1lUz0jc4QtWY6xU47dxuWLGSeU1ZGXOW4NTDVlInY7qRFqDmyq2H9IXn/dgkMp1z5Htg9shMLfLE4Zd+v2xbQImUF0YWnf74G+HZHFuzHz3/R+ZcQQoTUUeiKSHoQ8bTg1uXBpcVFZSl6ngxeBGZvLL6Rr2/UgaOyApw5qTR3eIAw9a7f/nbG+/980O4jccnxkrK2zp72zr6u3rnt7T3JspqqRZubpvb3rmovmlwdueSxpY+okQBZhkis1xTvJdBLq68GfWOew2J6CIjc90T+zsO/HnD3u/0H//vLTtfy6flGERWbDk95+h/K936Xs3unwyf+vFXg23QlVsdm8/978YQhGEZmFSyECISMivijaeHTpY/UApYTQ1VRJRAtbyu4q2hV4KBOAFWLjGONxF3o8F8A7//l79964NfuXVfk7GvgIzDssYqXck61UyqsZXLhQI7eVp9gtRAMn+vHLeS8rS83t3YrwKrja0oRkjWkyl0IdX9EimpqDWcQr9EJawi2WREDUwMmdoE2RSZFNkEM43NhtaOwVWbqpaXfL3SBFYAw0K58OKCY62kGQPbR1SBqAhrXgUvD9/uM+N1Jte4FQ4kfZq//xe/yYQtr3Qga7gKPnv0+frCv945bPGVccwY0gp3sTLjfL5FpBQIiJcZ93KJc2xRbMnYosiUkUncUucqMsPIPrxm/1BwICjaFOGn1jz5WMmyoBD3EQO4RvwctqYlHbI/ORmznz22PEh5jez/jG3nuXIrXTxMbI9bZAVWaZdd6NX65lJTwuzNgJOHLQVbCrao+8kRBoBmq0WGGCKsrIZsK2G7wFJFE0AVQRUjFeHRyoPpnZnWuHInT+RAMs7ns8UWz7U8bk0cI7HSO5o+35O1IdERNjA2qUsEmwI1KTIJNiFhhLGOsAaRAoGKgSJBBUBFBiqFOWxNyvn0WbiF9jSw5daGnFiukh/Jtn9INqFbEnuccBrX9fQalu6ZTBu7GbmlYhE2cYpmyaNtjHWCNIpUClQIZQRoAaYCVhSgyFCFeJT4f6U+sx3UuM7nvnIOTAtbY9SvNIuRWyglizd5Dg73j0erA2ecibHYym6Ok4UXdbf8YrK4sOtmo7sOFLzzKkQyRN5Acsat7HibxeROnMfPElsaIHwd5K+EN1sTbwVbbPxevepxjZv910Sm5I7cEQ58ltjij0hydZvOmpj9szUOUt7XHLay5+EdO3MUW29+8KtZtN3L7Tau8vYdATJiJRGSRVMg1pgePYkPQk5u3RGG/25vMoqtdPuWu5+oSZhFTgtwzFoDsIEVh2oh7tacaRmaDPg6IqpIrE2Laz653vDOka/XFf0BEfzMMIERGlPtIidmJuPh/XQ8M7awapRXN3b1zCuramaONMxpOEkiMrp6FoQLK32iKjC3QZfGKDqTjh8TEiCWpBfLTnTb1tbXTvsN+iUJE4gxcncVU8p+DluT8vB3K4qm9e+ZsQWp5kQSlbWt9c3dSTd5N7WpT1QbW3ub2/uLyxpdV2YevWiMlV6T8kUkFsQqAxKhCwbi714rNPDvS5hCTBBh3hA5bE1r8u7xkzNjy7W56/HS2oaWHkjcgjpuSoia+o6a+o7quo7isiaAHQYvNw7CxRY3K9xE5GgCcQhyNEoIoSPL6i8f8dvyH0isCgaGhHlx5bB1j8NlWt3LFlsSMsOFFW0dg5A6ZVVt8ZJGQIIpb2ammU39r0gXiUVhVCUawmpPd/EHbzXOb/oPIcMvIcj2JYmepJyz3i3Zk6aegs/2ttliS9GjA/OWF5c1aGZRbWNPdV2nasQEmHSwcYsLM/NVyoKVYVmESAPYkJFO2K6LVhpV/+b9x//lB8qCupkiBCxzDtWTlDSDZbjJvca+XH9uwoFssSXr0eKyxkRpQ0V12+yu4dldw7pVksIWc7/xaLI/g0glbO9FV6mJgbJmpPHKC3IFnYGQHIAoh63J+Hb/Hs+ALQkrdriwqLiioqa5tWOgMF5tOAlIbB6UIUCjqrYrXtrsF3mED5MuHrBu4nLjYUvGBhHlkcUlL5z+ekiZkafoEGsCYZSTW/cvkib2fBRb6bbTUFGisra5sra1yqXCRJUbLpaM37dCZZGiGr/IEt3wO04HWwaBGoHq/P7St1+urCQzFGJg1zcrtyZOnJ77+sgottJtpxwr4wbmIilpbkjldsvgmzDuqvSvgJgYOa0J/7YFef/j26FLG/+DhR/0KU6QhdEakpwi11HCe23MNe5TDiD3DY/5NL/9w19P8Gn2/AWSTgQeUG4yWu+ciQ2WCw47ph4tL6mwZOJQiWIZUGaUR5gp8kl45bCVMsfchM/3/k9JbL37yb9860e/LZBne/uJruZ0J7EFWAJVXSKKwMgIEEvABiLM8xNgwuIvRt8TM4jDe5+VX+AeGu428fhPhFngKovzeeuDXz8EW+4etpgTFcEQy4BtIOoIqwRjhAwIDcCSMugi1iRicMrY19zBe5MDkOVYyEAImwCpM1790/9x9dt/N1Nidcg8xXys9984B0DPCj+xkdkuxQIf2M6hSpAuI01FVEMAQbZrBJAJESs4BQhLKs6I5Oi+4QAmVkZC2ERYn/GDT/7lrQ9+/TDKVm5N1KWmPsKiHph9iyCDIANjC2EH4qCEbAk5CAcBsSFxIHUQdTBJp8xdzzie3MF7hwOfHbbS7Fs6xQYhFiIOJCGAgwAHMQlxIjQ8gYKE5uj+4wAmFsLmZyG3OLZkrCvEUKhFqY1pEMlhTh6eqBwZT0qI5ug+5ACR7RS2fvjrmahFlDVIk3s4fJkT0Z0JWEjKLaxTFgBtybJDlBBWIpzG4ykdYfchW3MPA1VCRLYxcWa895f/8q0Pfp0HWySOLaoGo8U19e2Nrd0ich1QiWmF4gPzli5YvHLB4pH+uQshqz48zQAyrCOiY2oQ2aSKRRUnNwefYw4QGsYkNIotqOhI0WOlFS++8sbll97Ysm2Plzdw9pyhg0dfGFn9yMjqjUMLlvhEhGQm4abW4lOuHdwCxEOrcRJbTg5hn1d4cT1nPLagrCHZXLB45WNP7PYSMy9buXHh0jVItqhmBwAFVHPd6nPYyqmDmTmQxNb7n3z6zge/yUOtXG4hRU9h6xkPW49ufWrX7oNP7T649clnZs/pR4p+B7GFme6Vo88VBwgNIxqe8f4nn377h7/NR23jsLVl227XcZmVLygqrmpq647GK4aXrHj+zEUnEoPJNXFcIP+kkmzcmkgUJ0WfK57mHhLOAYYtOTzjg598+u0f/UsBnhRbItQxq5+oS5j5LJy5cLWouJyopqtvKWMt+NliCytOinLY+hxygMrMCDDjh3/1r9/58NMC2s7lFlZZBrYFi1cyXZ4FXJhECT2955Csh4nqVNY2X3zxmm6HuLXCfVtM39XOYetzCJRbEMZJbP3or/7tOx9+6nOxBak2uGDR82cunr987cKV6ydOXV655jEB6us2bj199sXDx8+euXC1q3cuVg0RsYRvU2FrdMMxfU108/3ZSLZd0fUZTQZRQuPoFlg25SXj/iKbr1Pe8yYnZLw/Pz/jT7d28BZumMTWj//60+999KsC0gQVPSWNNDd3vBkAuohMAegFAqVa0A4leAqhAMCeLi9gK40cAY+SyIpZjCGJRgCNQDkK5aLJCCmx6RJWoq69ju2NYDJqOZPVsJyyvipqWFbD6e/8WC2EWny6hNVCWYsqWmQiEa0I6YnpElajshqZ2D2qhKBSCJTYzUiNgQlE3BuqWlTV2G35nRkr1DBUY9MdL9TiVI0qakTlo067oaKGsRqflLTojP/+9//fR5/83AfjhBZREqI4JNMwQUGCghg5NyeIgn5cOJECuEjAMT9K+FEigIs5CbhYwMUioxIBl/KvbqOUf4qkRCKlIikTSZlEy9MJ0FJAS9kReSKVAbkEynEoRz3sIqXQI6wWYbWIaDGixbBa5B0HSlxUSyaSpCREpXjicVEtAUoCKYybRM9AUC8BetlEQnopYJThJ6iXIDY9ox1zH7wo/xSVxGTdmKqH7IacvPEipVBSSyStdCIBJQH0sonHJa0UqsUuepJ3S2cgVYugWpqZNHbVjL/9n7/9+K9+qoQaiqoHRLNONGr9WrVfq/apVVMSdBorWpdmomUVrSMVrSsqWldNRpVtqydSVfuaqva106Q1ker5KNQKQ00wyAhHWki0jRMMNQlWnWDVSU6j5DSKdoNHwcqB6s6V06VgZT8KNWekWMOC2u7V0yU90cW7DYNNKNyMwi0k2sqptHXJZHdzKvon+wlHWt3BNkhOI3AaU7dtRuHmqs4VNXNWTaTqrpV1PWsnHq+Zs6qqc4VR0o3CLTjCyO0huxUKN5NQc13XqoxU07EiWNIz4x9+9q//x//67V//z08/+pv/93v/5VfvfPzzN3/0T2999NO3Pvyntz/66a3Sz97+6Bdvf/TLtz/8Vfb0rY9+/c5Hv/n2x7+dLr3z8W/e/vhXb3788xs//vn1D3/2+o9++vqP/un1H/2Ut1957++vfv9/XfvgH/mR6x/+7Pbop6//6KevvPcPr/3wn1z6R964vXv+7JUf/P21D/7xjY9+9tZ//uVb//mfb4fe/PgXb37881fe+/vrH/7sjY/YYF2GsG7fAl3/8Gc3fvzzNz/+xcvv/h1veze88eHPJqO3P/rpD//qN/8/XOSSVq3d9MYAAAAASUVORK5CYII=;" vertex="1" parent="1">
                    <mxGeometry x="20" y="240" width="184.83" height="240" as="geometry"/>
                </mxCell>
                <mxCell id="xl3xadT9zWck8V-V9sTq-22" value="" style="rounded=0;whiteSpace=wrap;html=1;" vertex="1" parent="1">
                    <mxGeometry x="100" y="570" width="210" height="570" as="geometry"/>
                </mxCell>
                <mxCell id="xl3xadT9zWck8V-V9sTq-23" value="" style="whiteSpace=wrap;html=1;aspect=fixed;" vertex="1" parent="1">
                    <mxGeometry x="414" y="550" width="600" height="600" as="geometry"/>
                </mxCell>
                <mxCell id="xl3xadT9zWck8V-V9sTq-24" value="ECStack调用栈" style="text;html=1;align=center;verticalAlign=middle;whiteSpace=wrap;rounded=0;" vertex="1" parent="1">
                    <mxGeometry x="100" y="540" width="60" height="30" as="geometry"/>
                </mxCell>
                <mxCell id="xl3xadT9zWck8V-V9sTq-25" value="{&lt;div&gt;name:undefined&lt;/div&gt;&lt;div&gt;foo:0x100&lt;/div&gt;&lt;div&gt;&lt;br&gt;&lt;/div&gt;&lt;div&gt;}&lt;/div&gt;" style="rounded=0;whiteSpace=wrap;html=1;" vertex="1" parent="1">
                    <mxGeometry x="480" y="620" width="120" height="110" as="geometry"/>
                </mxCell>
                <mxCell id="xl3xadT9zWck8V-V9sTq-26" value="GO" style="text;html=1;align=center;verticalAlign=middle;whiteSpace=wrap;rounded=0;" vertex="1" parent="1">
                    <mxGeometry x="480" y="590" width="60" height="30" as="geometry"/>
                </mxCell>
                <mxCell id="xl3xadT9zWck8V-V9sTq-27" value="" style="rounded=0;whiteSpace=wrap;html=1;" vertex="1" parent="1">
                    <mxGeometry x="110" y="1000" width="190" height="120" as="geometry"/>
                </mxCell>
                <mxCell id="xl3xadT9zWck8V-V9sTq-28" value="GEC" style="text;html=1;align=center;verticalAlign=middle;whiteSpace=wrap;rounded=0;" vertex="1" parent="1">
                    <mxGeometry x="105" y="960" width="60" height="30" as="geometry"/>
                </mxCell>
                <mxCell id="xl3xadT9zWck8V-V9sTq-29" value="VO：GO" style="rounded=0;whiteSpace=wrap;html=1;" vertex="1" parent="1">
                    <mxGeometry x="140" y="1000" width="120" height="40" as="geometry"/>
                </mxCell>
                <mxCell id="xl3xadT9zWck8V-V9sTq-30" value="执行代码" style="rounded=0;whiteSpace=wrap;html=1;" vertex="1" parent="1">
                    <mxGeometry x="145" y="1060" width="120" height="40" as="geometry"/>
                </mxCell>
                <mxCell id="xl3xadT9zWck8V-V9sTq-31" value="" style="whiteSpace=wrap;html=1;" vertex="1" parent="1">
                    <mxGeometry x="480" y="820" width="120" height="60" as="geometry"/>
                </mxCell>
                <mxCell id="xl3xadT9zWck8V-V9sTq-32" value="0x100&amp;nbsp; foo" style="text;html=1;align=center;verticalAlign=middle;resizable=0;points=[];autosize=1;strokeColor=none;fillColor=none;" vertex="1" parent="1">
                    <mxGeometry x="465" y="790" width="80" height="30" as="geometry"/>
                </mxCell>
                <mxCell id="xl3xadT9zWck8V-V9sTq-33" value="函数体" style="whiteSpace=wrap;html=1;" vertex="1" parent="1">
                    <mxGeometry x="480" y="850" width="120" height="60" as="geometry"/>
                </mxCell>
                <mxCell id="xl3xadT9zWck8V-V9sTq-34" value="【scope】:GO" style="text;html=1;align=center;verticalAlign=middle;resizable=0;points=[];autosize=1;strokeColor=none;fillColor=none;" vertex="1" parent="1">
                    <mxGeometry x="485" y="820" width="100" height="30" as="geometry"/>
                </mxCell>
                <mxCell id="xl3xadT9zWck8V-V9sTq-35" value="" style="endArrow=classic;html=1;" edge="1" target="xl3xadT9zWck8V-V9sTq-34" parent="1">
                    <mxGeometry width="50" height="50" relative="1" as="geometry">
                        <mxPoint x="570" y="670" as="sourcePoint"/>
                        <mxPoint x="620" y="620" as="targetPoint"/>
                    </mxGeometry>
                </mxCell>
                <mxCell id="xl3xadT9zWck8V-V9sTq-36" value="" style="whiteSpace=wrap;html=1;" vertex="1" parent="1">
                    <mxGeometry x="110" y="820" width="190" height="130" as="geometry"/>
                </mxCell>
                <mxCell id="xl3xadT9zWck8V-V9sTq-37" value="FEC&amp;nbsp; foo" style="text;html=1;align=center;verticalAlign=middle;resizable=0;points=[];autosize=1;strokeColor=none;fillColor=none;" vertex="1" parent="1">
                    <mxGeometry x="110" y="790" width="70" height="30" as="geometry"/>
                </mxCell>
                <mxCell id="xl3xadT9zWck8V-V9sTq-38" style="edgeStyle=none;html=1;exitX=1;exitY=0.5;exitDx=0;exitDy=0;" edge="1" source="xl3xadT9zWck8V-V9sTq-39" target="xl3xadT9zWck8V-V9sTq-42" parent="1">
                    <mxGeometry relative="1" as="geometry"/>
                </mxCell>
                <mxCell id="xl3xadT9zWck8V-V9sTq-39" value="VO：AO&lt;div&gt;scope chain:VO + GO&lt;/div&gt;" style="whiteSpace=wrap;html=1;" vertex="1" parent="1">
                    <mxGeometry x="135" y="835" width="140" height="40" as="geometry"/>
                </mxCell>
                <mxCell id="xl3xadT9zWck8V-V9sTq-40" value="执行代码&lt;div&gt;bar()&lt;/div&gt;" style="whiteSpace=wrap;html=1;" vertex="1" parent="1">
                    <mxGeometry x="130" y="900" width="140" height="40" as="geometry"/>
                </mxCell>
                <mxCell id="xl3xadT9zWck8V-V9sTq-55" style="edgeStyle=none;html=1;exitX=1;exitY=0.5;exitDx=0;exitDy=0;" edge="1" parent="1" source="xl3xadT9zWck8V-V9sTq-41" target="xl3xadT9zWck8V-V9sTq-51">
                    <mxGeometry relative="1" as="geometry"/>
                </mxCell>
                <mxCell id="xl3xadT9zWck8V-V9sTq-41" value="{&lt;div&gt;num:123&lt;/div&gt;&lt;div&gt;m:100&lt;/div&gt;&lt;div&gt;n:200&lt;/div&gt;&lt;div&gt;bar:0x003&lt;/div&gt;&lt;div&gt;&lt;br&gt;&lt;/div&gt;&lt;div&gt;}&lt;/div&gt;" style="whiteSpace=wrap;html=1;" vertex="1" parent="1">
                    <mxGeometry x="640" y="620" width="120" height="100" as="geometry"/>
                </mxCell>
                <mxCell id="xl3xadT9zWck8V-V9sTq-42" value="AO foo" style="text;html=1;align=center;verticalAlign=middle;resizable=0;points=[];autosize=1;strokeColor=none;fillColor=none;" vertex="1" parent="1">
                    <mxGeometry x="635" y="590" width="60" height="30" as="geometry"/>
                </mxCell>
                <mxCell id="xl3xadT9zWck8V-V9sTq-43" value="堆内存" style="text;html=1;align=center;verticalAlign=middle;resizable=0;points=[];autosize=1;strokeColor=none;fillColor=none;" vertex="1" parent="1">
                    <mxGeometry x="420" y="498" width="60" height="30" as="geometry"/>
                </mxCell>
                <mxCell id="xl3xadT9zWck8V-V9sTq-56" style="edgeStyle=none;html=1;exitX=1;exitY=0.5;exitDx=0;exitDy=0;" edge="1" parent="1" source="xl3xadT9zWck8V-V9sTq-49" target="xl3xadT9zWck8V-V9sTq-53">
                    <mxGeometry relative="1" as="geometry"/>
                </mxCell>
                <mxCell id="xl3xadT9zWck8V-V9sTq-49" value="" style="whiteSpace=wrap;html=1;" vertex="1" parent="1">
                    <mxGeometry x="110" y="680" width="160" height="110" as="geometry"/>
                </mxCell>
                <mxCell id="xl3xadT9zWck8V-V9sTq-50" value="【scope】:AO foo" style="whiteSpace=wrap;html=1;" vertex="1" parent="1">
                    <mxGeometry x="640" y="820" width="120" height="60" as="geometry"/>
                </mxCell>
                <mxCell id="xl3xadT9zWck8V-V9sTq-51" value="0x003 bar" style="text;html=1;align=center;verticalAlign=middle;resizable=0;points=[];autosize=1;strokeColor=none;fillColor=none;" vertex="1" parent="1">
                    <mxGeometry x="654" y="780" width="80" height="30" as="geometry"/>
                </mxCell>
                <mxCell id="xl3xadT9zWck8V-V9sTq-52" value="函数体" style="whiteSpace=wrap;html=1;" vertex="1" parent="1">
                    <mxGeometry x="640" y="855" width="120" height="60" as="geometry"/>
                </mxCell>
                <mxCell id="xl3xadT9zWck8V-V9sTq-53" value="{&lt;div&gt;&lt;br&gt;&lt;/div&gt;&lt;div&gt;&lt;br&gt;&lt;/div&gt;&lt;div&gt;}&lt;/div&gt;" style="whiteSpace=wrap;html=1;" vertex="1" parent="1">
                    <mxGeometry x="827" y="630" width="120" height="100" as="geometry"/>
                </mxCell>
                <mxCell id="xl3xadT9zWck8V-V9sTq-54" value="AO bar" style="text;html=1;align=center;verticalAlign=middle;resizable=0;points=[];autosize=1;strokeColor=none;fillColor=none;" vertex="1" parent="1">
                    <mxGeometry x="827" y="590" width="60" height="30" as="geometry"/>
                </mxCell>
                <mxCell id="xl3xadT9zWck8V-V9sTq-57" value="FEC bar" style="text;html=1;align=center;verticalAlign=middle;resizable=0;points=[];autosize=1;strokeColor=none;fillColor=none;" vertex="1" parent="1">
                    <mxGeometry x="125" y="640" width="70" height="30" as="geometry"/>
                </mxCell>
                <mxCell id="xl3xadT9zWck8V-V9sTq-58" value="VO:AO&lt;div&gt;scope chain&lt;/div&gt;" style="whiteSpace=wrap;html=1;" vertex="1" parent="1">
                    <mxGeometry x="110" y="680" width="145" height="60" as="geometry"/>
                </mxCell>
                <mxCell id="xl3xadT9zWck8V-V9sTq-61" value="执行代码&lt;div&gt;consoel&lt;/div&gt;" style="whiteSpace=wrap;html=1;" vertex="1" parent="1">
                    <mxGeometry x="115" y="748" width="140" height="40" as="geometry"/>
                </mxCell>
            </root>
        </mxGraphModel>
    </diagram>
</mxfile>